<?xml version="1.0" encoding="utf-8"?>
<!-- Generator: Adobe Illustrator 22.0.0, SVG Export Plug-In . SVG Version: 6.00 Build 0)  -->
<svg version="1.1" id="Camada_1" xmlns="http://www.w3.org/2000/svg" xmlns:xlink="http://www.w3.org/1999/xlink" x="0px" y="0px"
	 viewBox="0 0 153.4 51.9" style="enable-background:new 0 0 153.4 51.9;" xml:space="preserve">
<style type="text/css">
	.st0{clip-path:url(#SVGID_2_);fill:#9D9D9C;}
</style>
<g>
	<defs>
		<rect id="SVGID_1_" y="0" width="153.4" height="51.9"/>
	</defs>
	<clipPath id="SVGID_2_">
		<use xlink:href="#SVGID_1_"  style="overflow:visible;"/>
	</clipPath>
	<path class="st0" d="M43.1,46.4c0.4-0.1,0.8-0.1,1.5-0.1c0.7,0,1.2,0.2,1.6,0.5c0.3,0.3,0.5,0.7,0.5,1.2c0,0.5-0.2,1-0.5,1.3
		c-0.4,0.4-1,0.5-1.6,0.5c-0.1,0-0.3,0-0.4,0l0,2l-1.2,0L43.1,46.4z M44.2,48.9c0.1,0,0.2,0,0.3,0c0.6,0,1-0.3,1-0.9
		c0-0.5-0.3-0.8-0.9-0.8c-0.2,0-0.3,0-0.4,0L44.2,48.9z"/>
	<polygon class="st0" points="48.2,46.4 49.3,46.4 49.3,50.8 51.2,50.8 51.2,51.8 48.1,51.8 	"/>
	<path class="st0" d="M53.7,50.4l-0.4,1.3l-1.2,0l1.6-5.4l1.5,0l1.4,5.4l-1.2,0l-0.3-1.3L53.7,50.4z M54.9,49.6l-0.3-1.1
		c-0.1-0.3-0.2-0.8-0.2-1.1l0,0c-0.1,0.3-0.2,0.8-0.3,1.1l-0.3,1.1L54.9,49.6z"/>
	<polygon class="st0" points="59,47.4 57.7,47.4 57.7,46.4 61.5,46.4 61.5,47.4 60.2,47.4 60.1,51.8 58.9,51.8 	"/>
	<path class="st0" d="M63.9,50.4l-0.4,1.3l-1.2,0l1.6-5.4l1.5,0l1.4,5.4l-1.2,0l-0.3-1.3L63.9,50.4z M65.1,49.6l-0.3-1.1
		c-0.1-0.3-0.2-0.8-0.2-1.1l0,0c-0.1,0.3-0.2,0.8-0.3,1.1l-0.3,1.1L65.1,49.6z"/>
	<polygon class="st0" points="68.3,46.4 71.3,46.4 71.3,47.4 69.5,47.4 69.4,48.6 71.2,48.7 71.2,49.6 69.4,49.6 69.4,51.8 
		68.2,51.8 	"/>
	<path class="st0" d="M77.3,49.1c0,1.9-1,2.8-2.4,2.8c-1.5,0-2.3-1.3-2.3-2.8c0-1.6,1-2.8,2.4-2.8C76.6,46.3,77.3,47.6,77.3,49.1
		 M73.8,49.1c0,1.1,0.4,1.8,1.1,1.8c0.7,0,1.1-0.8,1.1-1.8c0-1-0.3-1.8-1.1-1.8C74.3,47.2,73.9,48,73.8,49.1"/>
	<path class="st0" d="M78.8,46.4c0.4-0.1,0.9-0.1,1.5-0.1c0.7,0,1.3,0.1,1.7,0.5c0.3,0.3,0.5,0.7,0.5,1.1c0,0.7-0.4,1.1-0.9,1.3v0
		c0.4,0.2,0.6,0.5,0.7,1c0.1,0.6,0.3,1.3,0.4,1.5l-1.2,0c-0.1-0.2-0.2-0.6-0.3-1.3c-0.1-0.7-0.3-0.9-0.8-0.9l-0.3,0l0,2.1l-1.2,0
		L78.8,46.4z M79.9,48.8l0.4,0c0.6,0,0.9-0.3,0.9-0.8c0-0.5-0.3-0.8-0.8-0.8c-0.2,0-0.4,0-0.5,0L79.9,48.8z"/>
	<path class="st0" d="M88.1,49.8c0-0.6,0-1.4,0-2.1h0c-0.2,0.7-0.4,1.4-0.6,2l-0.6,2l-0.9,0l-0.5-2c-0.1-0.6-0.3-1.3-0.4-2h0
		c0,0.7-0.1,1.5-0.1,2.1l-0.1,2l-1.1,0l0.5-5.4l1.5,0l0.5,1.9c0.2,0.6,0.3,1.3,0.4,1.9l0,0c0.1-0.6,0.3-1.3,0.5-1.9l0.6-1.8l1.5,0
		l0.2,5.4l-1.1,0L88.1,49.8z"/>
	<path class="st0" d="M92,50.4l-0.4,1.3l-1.2,0l1.6-5.4l1.5,0l1.4,5.4l-1.2,0l-0.3-1.3L92,50.4z M93.2,49.6L93,48.4
		c-0.1-0.3-0.2-0.8-0.2-1.1l0,0c-0.1,0.3-0.2,0.8-0.3,1.1l-0.3,1.1L93.2,49.6z"/>
	<polygon class="st0" points="101.5,49.5 99.7,49.5 99.7,50.8 101.7,50.9 101.7,51.8 98.5,51.8 98.6,46.4 101.6,46.4 101.6,47.4 
		99.8,47.4 99.7,48.5 101.5,48.5 	"/>
	<path class="st0" d="M103.2,46.4c0.4-0.1,0.9-0.1,1.5-0.1c0.9,0,1.5,0.2,2,0.6c0.5,0.4,0.8,1.1,0.8,2.1c0,1.1-0.4,1.8-0.9,2.2
		c-0.5,0.4-1.3,0.6-2.3,0.6c-0.5,0-1-0.1-1.2-0.1L103.2,46.4z M104.3,50.9c0.1,0,0.2,0,0.4,0c0.9,0,1.6-0.5,1.6-1.9
		c0-1.1-0.5-1.7-1.4-1.8c-0.2,0-0.4,0-0.5,0L104.3,50.9z"/>
	<path class="st0" d="M110.2,46.4l-0.1,3.2c0,0.9,0.3,1.3,0.8,1.3c0.5,0,0.9-0.4,0.9-1.3l0.1-3.2l1.2,0l-0.1,3.1
		c0,1.6-0.8,2.4-2.1,2.3c-1.3,0-2-0.8-1.9-2.4l0.1-3.1L110.2,46.4z"/>
	<path class="st0" d="M118.2,51.7c-0.2,0.1-0.7,0.2-1.2,0.2c-1.7,0-2.6-1.2-2.6-2.7c0-1.9,1.3-2.8,2.8-2.8c0.6,0,1,0.1,1.2,0.2
		l-0.2,0.9c-0.2-0.1-0.5-0.2-0.9-0.2c-0.9,0-1.6,0.5-1.6,1.8c0,1.1,0.6,1.8,1.5,1.8c0.3,0,0.7-0.1,0.9-0.1L118.2,51.7z"/>
	<path class="st0" d="M120.8,50.4l-0.4,1.3l-1.2,0l1.6-5.4l1.5,0l1.4,5.4l-1.2,0l-0.3-1.3L120.8,50.4z M122,49.6l-0.3-1.1
		c-0.1-0.3-0.2-0.8-0.2-1.1l0,0c-0.1,0.3-0.2,0.8-0.3,1.1l-0.3,1.1L122,49.6z"/>
	<path class="st0" d="M128.7,51.7c-0.2,0.1-0.7,0.2-1.2,0.2c-1.7,0-2.6-1.2-2.6-2.7c0-1.9,1.3-2.8,2.8-2.8c0.6,0,1,0.1,1.2,0.2
		l-0.2,0.9c-0.2-0.1-0.5-0.2-0.9-0.2c-0.9,0-1.6,0.5-1.6,1.8c0,1.1,0.6,1.8,1.5,1.8c0.3,0,0.7-0.1,0.9-0.1L128.7,51.7z"/>
	
		<rect x="128" y="48.5" transform="matrix(1.736472e-02 -0.9998 0.9998 1.736472e-02 79.3894 178.9643)" class="st0" width="5.4" height="1.2"/>
	<path class="st0" d="M137.5,49.1c0,1.9-1,2.8-2.4,2.8c-1.5,0-2.3-1.3-2.3-2.8c0-1.6,1-2.8,2.4-2.8
		C136.8,46.3,137.5,47.6,137.5,49.1 M134,49.1c0,1.1,0.4,1.8,1.1,1.8c0.7,0,1.1-0.8,1.1-1.8c0-1-0.3-1.8-1.1-1.8
		C134.5,47.2,134,48,134,49.1"/>
	<path class="st0" d="M138.9,51.8l0.1-5.4l1.3,0l1,2c0.3,0.5,0.6,1.2,0.8,1.8l0,0c-0.1-0.7-0.1-1.5-0.1-2.3l0-1.5l1.1,0l-0.1,5.4
		l-1.2,0l-1-2.1c-0.3-0.6-0.6-1.2-0.8-1.8l0,0c0,0.7,0,1.5,0,2.4l0,1.5L138.9,51.8z"/>
	<path class="st0" d="M145.8,50.4l-0.4,1.3l-1.2,0l1.6-5.4l1.5,0l1.4,5.4l-1.2,0l-0.3-1.3L145.8,50.4z M147.1,49.6l-0.3-1.1
		c-0.1-0.3-0.2-0.8-0.2-1.1l0,0c-0.1,0.3-0.2,0.8-0.3,1.1l-0.3,1.1L147.1,49.6z"/>
	<polygon class="st0" points="150.3,46.4 151.4,46.4 151.4,50.8 153.3,50.8 153.3,51.8 150.2,51.8 	"/>
	<path class="st0" d="M53.6,1.2c-0.7-0.7-1.6-1.1-2.6-1.1c-2,0-3.6,1.6-3.6,3.6v6.4c0,6,0.3,11.4,0.7,15.9L48,26
		c-1.5-3.9-3.5-8.5-5.4-12.1L37,3.1c-0.5-0.9-1.2-1.7-2-2.2c-0.8-0.5-1.8-0.8-2.8-0.8c-3,0-5.5,2.4-5.5,5.5v6.2c0.6-0.6,1.5-1,2.4-1
		c0.5,0,1,0.1,1.5,0.4c0.6,0.3,1.1,0.6,1.6,0.9c0.5,0.3,1,0.6,1.4,0.9c0-0.8-0.1-1.7-0.1-2.5l0.2,0c0.4,1.2,0.9,2.4,1.5,3.6
		c0.6,0.5,1.2,1.1,1.7,1.6c1,1.1,2,2.3,2.8,3.6l0,0.1l0,0.1c1.5,2.5,2.5,5.2,3,8.1c0.1,0.8,0.2,1.7,0.2,2.6l2.2,4.3
		c0.4,0.8,1.1,1.5,1.9,2c0.8,0.5,1.7,0.7,2.6,0.7c2.8,0,5-2.3,5-5V3.7C54.7,2.7,54.3,1.8,53.6,1.2"/>
	<path class="st0" d="M17,33.1v-29c0-2.2,1.8-4,4-4c2.2,0,4,1.8,4,4v29c0,2.2-1.8,4-4,4C18.8,37.1,17,35.3,17,33.1"/>
	<path class="st0" d="M57,23.6c0.4-1.6,2-2.5,3.6-2c1.2,0.4,2.5,0.6,3.7,0.6c2.3,0,3.4-0.8,3.4-2.3c0-1.4-0.8-2.1-3.7-3.3
		c-5.2-2-7-5-7-7.9c0-5,4-8.7,10.3-8.7c1.5,0,3,0.2,4.2,0.5C73,0.9,73.9,2.5,73.6,4l0,0.1c-0.4,1.5-1.9,2.4-3.4,2
		c-0.8-0.2-1.7-0.4-2.5-0.4c-2,0-3,0.9-3,2.2c0,1.3,0.9,1.9,4,3.2c4.8,1.9,6.7,4.6,6.7,8.2c0,5.2-3.9,8.6-11,8.6
		c-1.9,0-3.8-0.3-5.4-0.7c-1.5-0.4-2.3-1.9-1.9-3.4L57,23.6z"/>
	<path class="st0" d="M77.5,9.5c0-1.9,0-3.6-0.1-5.2c-0.1-2,1.6-3.7,3.6-3.7c1.8,0,3.4,1.4,3.6,3.2l0,0.4h0.1c1.7-2.6,4.5-4.1,8-4.1
		c5.9,0,10.3,5.5,10.3,13.7c0,9.7-5.6,14.2-11.2,14.2c-2.9,0-5.1-1.3-6.2-2.9h-0.1v9.6c0,2-1.6,3.6-3.6,3.6h-0.8
		c-2,0-3.6-1.6-3.6-3.6V9.5z M85.5,16.4c0,0.7,0.1,1.4,0.2,1.9c0.5,2.1,2.2,3.4,4.1,3.4c3.3,0,5.1-3.2,5.1-7.7
		c0-4.5-1.7-7.6-4.9-7.6c-2,0-3.8,1.6-4.2,3.6c-0.2,0.5-0.2,1.1-0.2,1.6V16.4z"/>
	<path class="st0" d="M105.1,23.4V4.6c0-2.2,1.8-4,4-4s4,1.8,4,4v18.8c0,2.2-1.8,4-4,4S105.1,25.6,105.1,23.4"/>
	<path class="st0" d="M149.3,27.4c-1.6,0-2.9-1.1-3.2-2.7H146c-1.7,2.1-4.2,3.2-7.1,3.2c-5,0-8.2-3.8-8.2-8.2
		c0-7,6.2-10.2,14.7-10.2V9.2c0-1.6-0.9-3.5-4.6-3.5c-1.5,0-2.9,0.3-4.2,0.7c-1.5,0.5-3-0.3-3.4-1.8c-0.4-1.3,0.3-2.8,1.7-3.2
		c1.9-0.7,4.5-1.3,7.5-1.3c8.7,0,11.1,5.4,11.1,11.5V21c0,1,0,2.1,0.1,3c0.1,1.8-1.4,3.4-3.2,3.4H149.3z M145.6,14.6
		c-3.8,0-7.2,1-7.2,4.3c0,2.3,1.4,3.3,3.1,3.3c1.8,0,3.4-1.2,3.9-2.9c0.1-0.4,0.2-0.9,0.2-1.4V14.6z"/>
	<path class="st0" d="M131.4,4c0,1.7-0.9,2.8-2.1,3.3c-0.2,0.1-0.4,0.2-0.7,0.2c-1.9,0.4-3.4,1.4-4.4,2.9c-1,1.5-1.6,3.6-1.6,6.3v7
		c0,2.1-1.7,3.8-3.8,3.8c-1,0-1.9-0.4-2.5-1l0,0c-0.7-0.7-1.1-1.7-1.1-2.8V8.9c0-2,0-3.7-0.1-5.2c0-0.2,0-0.4,0-0.6
		c0.2-1.8,1.7-3.2,3.6-3.2c0.9,0,1.8,0.4,2.5,1c0.4,0.4,0.7,0.9,0.9,1.4c0.3,0.5,0.4,1.1,0.4,1.7v1.2c1.1-2.6,2.9-4.9,5.1-4.9
		C130.1,0.3,131.4,1.9,131.4,4"/>
	<path class="st0" d="M42,32.6c-0.8,10.3-9.3,18.6-19.6,19.3c-0.4,0-0.9,0-1.3,0c-6.2,0-11.7-2.7-15.6-6.9c-0.9-1-1.7-2.1-2.4-3.2
		C2.5,40.9,2,40,1.7,39c-0.3-0.6-0.5-1.3-0.7-1.9C0.3,35.1,0,33,0,30.9c0-8.4,4.9-15.6,12-19c0.4-0.2,0.7-0.2,1.1-0.2
		c0.5,0,0.9,0.1,1.3,0.4c0.1,0.1,0.3,0.2,0.4,0.3l0.2,0.2l0.1,0.2c0.3,0.4,0.4,0.9,0.4,1.4c0,0.9-0.6,1.8-1.4,2.2
		c-5.4,2.6-9.2,8.2-9.2,14.6C4.9,39.8,12.1,47,21,47c0.6,0,1.2,0,1.8-0.1c4.7-0.5,8.9-3.1,11.5-6.9c0.7-0.9,1.2-1.9,1.6-3
		c0.6-1.5,1-3.1,1.2-4.7c0.4-4.2-0.9-8.1-3.2-11.1c-0.7-0.9-1.4-1.7-2.2-2.4c-1.1-1-2.3-1.8-3.6-2.4c-0.8-0.4-1.4-1.2-1.4-2.2
		c0-1.4,1.2-2.5,2.4-2.5c0.4,0,0.7,0.1,1.1,0.3c0.5,0.2,1,0.5,1.5,0.8c0.7,0.4,1.4,0.9,2,1.4c0.9,0.7,1.7,1.4,2.5,2.2
		c1,1,1.9,2.2,2.6,3.4l0.1,0.1c1.4,2.3,2.4,4.9,2.8,7.7C42,29.2,42.1,30.9,42,32.6"/>
</g>
</svg>
