<?xml version="1.0" encoding="utf-8"?>
<!-- Generator: Adobe Illustrator 27.1.1, SVG Export Plug-In . SVG Version: 6.00 Build 0)  -->
<svg version="1.1" id="Camada_1" xmlns="http://www.w3.org/2000/svg" xmlns:xlink="http://www.w3.org/1999/xlink" x="0px" y="0px"
	 viewBox="0 0 16 16" style="enable-background:new 0 0 16 16;" xml:space="preserve">
<path d="M11.3,7.4L5.8,1.9c-0.1,0-0.1-0.1-0.2-0.1s-0.2,0-0.2,0c-0.1,0-0.2,0-0.2,0C5,1.8,5,1.9,4.9,1.9C4.8,2,4.7,2.2,4.7,2.4
	c0,0.2,0.1,0.3,0.2,0.4l4.9,4.9l-4.9,4.9c-0.1,0.1-0.2,0.3-0.2,0.4c0,0.2,0.1,0.3,0.2,0.4c0.1,0.1,0.3,0.2,0.4,0.2
	c0.2,0,0.3-0.1,0.4-0.2l5.5-5.5L11.3,7.4z"/>
</svg>
