<?xml version="1.0" encoding="UTF-8"?><svg id="Camada_1" xmlns="http://www.w3.org/2000/svg" viewBox="0 0 910.59 455.29"><defs><style>.cls-1{fill:#fff;}.cls-2{fill:#9d9d9c;}.cls-3{fill:#f9ae17;}</style></defs><path class="cls-2" d="m276.29,315.97c1.86-.3,4.44-.51,7.81-.45,3.75.06,6.5.79,8.36,2.41,1.75,1.47,2.77,3.85,2.73,6.52-.05,2.88-1,5.17-2.65,6.72-2.1,1.97-5.26,2.84-8.58,2.78-.71-.01-1.35-.06-1.87-.14l-.18,10.3-6.11-.11.49-28.02Zm5.88,13c.46.11,1.01.15,1.77.17,3.22.06,5.1-1.72,5.15-4.53.04-2.57-1.48-4.28-4.52-4.33-1.04-.02-1.82.07-2.25.17l-.15,8.52Z"/><path class="cls-2" d="m302.83,315.61l6.16.11-.4,23.24,10.09.17-.09,5.18-16.25-.28.49-28.41Z"/><path class="cls-2" d="m331.88,337.03l-1.9,7.02-6.26-.11,8.41-28.28,7.87.14,7.36,28.55-6.46-.11-1.77-7.09-7.25-.13Zm6.52-4.52l-1.42-6.04c-.39-1.7-.82-4.06-1.18-5.79h-.09c-.41,1.73-.88,4.11-1.32,5.75l-1.61,5.98,5.61.1Z"/><path class="cls-2" d="m359.74,320.99l-6.87-.12.09-5.31,19.99.35-.09,5.31-6.96-.12-.4,23.1-6.16-.11.4-23.1Z"/><path class="cls-2" d="m385.38,337.03l-1.9,7.02-6.26-.11,8.41-28.28,7.87.14,7.36,28.55-6.46-.11-1.77-7.09-7.25-.13Zm6.52-4.52l-1.42-6.04c-.39-1.7-.82-4.06-1.18-5.79h-.09c-.41,1.73-.88,4.11-1.32,5.75l-1.61,5.98,5.61.1Z"/><path class="cls-2" d="m408.57,315.6l15.86.27-.09,5.12-9.7-.17-.12,6.75,9.08.16-.09,5.03-9.08-.16-.2,11.51-6.16-.11.49-28.41Z"/><path class="cls-2" d="m455.69,329.81c-.17,9.74-5.34,14.89-12.77,14.77-7.83-.14-11.95-6.71-11.81-14.73.14-8.27,5.01-14.67,12.75-14.53,8.16.14,11.96,7.04,11.83,14.49Zm-18.1.09c-.1,5.83,2.03,9.6,5.7,9.67,3.74.06,5.82-4.04,5.91-9.63.09-5.09-1.76-9.53-5.6-9.6-3.71-.06-5.91,3.87-6.01,9.57Z"/><path class="cls-2" d="m463.54,315.98c1.97-.32,4.77-.51,7.8-.46,3.86.07,6.73.7,8.67,2.36,1.68,1.44,2.46,3.42,2.41,5.99-.06,3.43-2.35,5.96-4.95,6.93v.12c1.94.83,2.98,2.7,3.6,5.46.72,3.21,1.49,6.87,2.01,7.96l-6.33-.11c-.4-.82-1.04-3.29-1.68-6.71-.64-3.56-1.73-4.54-4.13-4.61l-1.59-.03-.19,11.21-6.11-.11.49-28.02Zm5.89,12.38l2.06.04c2.95.05,4.73-1.64,4.77-4.11.04-2.55-1.47-4.02-4.26-4.1-1.22-.02-2.02.05-2.43.16l-.14,8.02Z"/><path class="cls-2" d="m512.3,333.7c-.08-3.23-.16-7.19-.06-11.03h-.11c-.85,3.44-1.98,7.3-2.94,10.3l-3.36,10.74-4.67-.08-2.67-10.73c-.75-3.05-1.57-6.95-2.13-10.5h-.09c-.19,3.63-.43,7.77-.65,11.09l-.7,10.5-5.58-.1,2.38-28.38,7.74.13,2.45,9.78c.81,3.38,1.58,6.83,2.12,10.14h.12c.73-3.24,1.66-6.8,2.61-10.08l2.95-9.65,7.63.13,1.09,28.44-5.86-.1-.28-10.6Z"/><path class="cls-2" d="m532.8,337.03l-1.9,7.02-6.26-.11,8.41-28.28,7.87.14,7.36,28.55-6.46-.11-1.77-7.09-7.25-.13Zm6.52-4.52l-1.42-6.04c-.39-1.7-.82-4.06-1.18-5.79h-.09c-.41,1.73-.88,4.11-1.32,5.75l-1.61,5.98,5.61.1Z"/><path class="cls-2" d="m582.69,332.12l-9.26-.16-.12,7.04,10.37.18-.09,5.12-16.53-.29.49-28.41,15.96.28-.09,5.12-9.8-.17-.11,6.1,9.26.16-.09,5.03Z"/><path class="cls-2" d="m591.9,315.95c2.07-.33,4.85-.51,7.76-.46,4.85.08,8.04,1.09,10.46,3.08,2.76,2.25,4.37,5.83,4.28,11-.1,5.54-1.98,9.36-4.67,11.59-2.71,2.25-6.78,3.28-11.84,3.2-2.86-.05-5.05-.28-6.47-.5l.48-27.9Zm5.74,23.42c.48.11,1.23.12,1.86.14,4.87.12,8.3-2.85,8.42-9.96.11-5.88-2.71-9.17-7.58-9.25-1.1-.02-1.88.06-2.38.17l-.33,18.91Z"/><path class="cls-2" d="m628.36,315.66l-.29,16.98c-.08,4.69,1.57,6.86,4.3,6.9,2.84.05,4.51-1.93,4.6-6.75l.29-16.98,6.16.11-.28,16.41c-.14,8.33-4.15,12.36-11,12.25-6.8-.12-10.36-4.2-10.21-12.65l.28-16.37,6.16.11Z"/><path class="cls-2" d="m670.51,343.65c-1.05.49-3.41,1-6.38.95-9.07-.16-13.55-6.33-13.41-14.42.17-10,6.9-14.89,14.56-14.75,2.93.05,5.1.66,6.04,1.21l-1.28,4.93c-1.08-.5-2.56-.96-4.53-1-4.49-.08-8.17,2.84-8.28,9.37-.1,6.02,2.97,9.38,7.97,9.46,1.66.03,3.47-.27,4.57-.69l.75,4.94Z"/><path class="cls-2" d="m684.07,337.03l-1.9,7.02-6.26-.11,8.41-28.28,7.87.14,7.36,28.55-6.46-.11-1.77-7.09-7.25-.13Zm6.52-4.52l-1.42-6.04c-.39-1.7-.82-4.06-1.18-5.79h-.09c-.41,1.73-.88,4.11-1.32,5.75l-1.61,5.98,5.61.1Z"/><path class="cls-2" d="m725.44,343.65c-1.05.49-3.41,1-6.38.95-9.07-.16-13.55-6.33-13.41-14.42.17-10,6.9-14.89,14.56-14.75,2.93.05,5.1.66,6.04,1.21l-1.28,4.93c-1.08-.5-2.56-.96-4.53-1-4.49-.08-8.17,2.84-8.28,9.37-.1,6.02,2.97,9.38,7.97,9.46,1.66.03,3.47-.27,4.57-.69l.75,4.94Z"/><path class="cls-2" d="m739.57,315.79l-.49,28.41-6.16-.11.49-28.41,6.16.11Z"/><path class="cls-2" d="m771.55,329.81c-.17,9.74-5.34,14.89-12.77,14.77-7.83-.14-11.95-6.71-11.81-14.73.14-8.27,5.01-14.67,12.75-14.53,8.16.14,11.96,7.04,11.83,14.49Zm-18.1.09c-.1,5.83,2.03,9.6,5.7,9.67,3.74.06,5.82-4.04,5.91-9.63.09-5.09-1.76-9.53-5.6-9.6-3.71-.06-5.91,3.87-6.01,9.57Z"/><path class="cls-2" d="m778.92,343.96l.49-28.41,6.76.12,5.26,10.73c1.4,2.77,2.92,6.37,4,9.38h.1c-.27-3.53-.4-7.7-.32-12.27l.13-7.68,5.59.1-.49,28.41-6.23-.11-5.37-11c-1.43-2.89-3.05-6.55-4.16-9.66h-.12c.13,3.5.17,7.63.09,12.6l-.14,7.9-5.58-.1Z"/><path class="cls-2" d="m815.5,337.03l-1.9,7.02-6.26-.11,8.41-28.28,7.87.14,7.36,28.55-6.46-.11-1.77-7.09-7.25-.13Zm6.52-4.52l-1.42-6.04c-.39-1.7-.82-4.06-1.18-5.79h-.09c-.41,1.73-.88,4.11-1.32,5.75l-1.61,5.98,5.61.1Z"/><path class="cls-2" d="m838.69,315.61l6.16.11-.4,23.24,10.09.17-.09,5.18-16.25-.28.49-28.41Z"/><path class="cls-3" d="m331.59,78.31c-3.45-3.45-8.21-5.6-13.49-5.6-10.52,0-19.07,8.54-19.07,19.09v33.4c0,31.23,1.33,59.64,3.62,83.7l-.69.06c-7.74-20.39-18.54-44.85-28.43-63.58l-29.17-57.06c-2.46-4.8-6.15-8.69-10.57-11.41-4.42-2.69-9.58-4.21-14.94-4.21-15.83,0-28.64,12.84-28.64,28.66v32.52c3.28-3.33,7.83-5.39,12.84-5.39,2.67,0,5.39.65,7.89,1.85,2.93,1.41,5.66,2.9,8.36,4.52,2.57,1.52,5.11,3.16,7.6,4.9-.19-4.44-.4-8.73-.63-12.88l.84-.06c2.29,6.12,4.9,12.54,7.68,19.05,3.24,2.71,6.31,5.6,9.18,8.63,5.49,5.75,10.38,12.04,14.52,18.71l.25.44c.06.08.13.19.21.34,8.02,12.99,13.28,27.25,15.59,42.39.69,4.44,1.12,8.97,1.26,13.51l11.47,22.48c2.25,4.42,5.64,8.02,9.72,10.52,4.08,2.5,8.84,3.89,13.79,3.89,14.58,0,26.39-11.83,26.39-26.39V91.8c0-5.28-2.13-10.04-5.58-13.49Z"/><rect class="cls-3" x="139.29" y="72.7" width="42.07" height="194.1" rx="21.03" ry="21.03"/><path class="cls-1" d="m349.12,196.26c2.08-8.32,10.72-13.14,18.92-10.62,6.26,1.93,13.18,3.29,19.26,3.29,12.14,0,17.8-4.42,17.8-11.92s-4.4-11.13-19.41-17.13c-27.41-10.64-36.82-26.21-36.7-41.65,0-26.13,21.09-45.83,54.04-45.83,8.13,0,15.66,1.04,22.18,2.66,8.03,1.99,12.94,10.08,10.94,18.11l-.12.49c-1.97,7.91-10.05,12.5-17.94,10.43-4.19-1.1-8.73-1.84-13.29-1.84-10.37,0-16,4.68-16,11.55s4.9,10.17,20.95,16.71c24.95,9.89,35.09,23.93,35.2,43.09,0,27.09-20.55,45.32-57.59,45.32-10.13,0-20.01-1.48-28.31-3.9-7.63-2.23-12.06-10.19-10.13-17.9l.21-.84Z"/><path class="cls-1" d="m456.63,121.87c0-9.85-.17-18.87-.42-27.18-.32-10.61,8.2-19.38,18.82-19.38h0c9.62,0,17.7,7.26,18.72,16.83l.2,1.9h.58c9.09-13.88,23.48-21.64,41.74-21.64,30.84,0,54.05,28.88,54.05,72.06,0,51.03-29.5,74.72-58.6,74.72-15.2,0-27-6.87-32.55-15.37h-.58v50.13c0,10.4-8.43,18.83-18.83,18.83h-4.3c-10.4,0-18.83-8.43-18.83-18.83V121.87Zm41.96,36.74c0,3.7.39,7.17,1.2,9.97,2.86,10.8,11.44,17.82,21.58,17.82,17.2,0,26.56-17.01,26.56-40.39s-8.97-40.03-25.98-40.03c-10.43,0-19.84,8.18-22.18,19.13-.82,2.6-1.19,5.57-1.19,8.49v25.01Z"/><rect class="cls-1" x="601.6" y="75.31" width="42.06" height="140.96" rx="21.03" ry="21.03"/><path class="cls-1" d="m833.54,216.27c-8.2,0-15.21-5.9-16.61-13.98h0s-.84,0-.84,0c-8.74,11.12-22.1,16.89-37.52,16.89-26.48,0-43.03-19.77-43.03-43.02,0-36.82,32.76-53.53,77.22-53.57v-2.2c0-8.58-4.76-18.51-24.01-18.48-7.69,0-15.32,1.42-22.16,3.67-7.65,2.52-15.87-1.73-18.06-9.48h0c-2-7.08,1.78-14.53,8.7-17.04,9.95-3.6,23.48-6.65,39.51-6.65,45.69,0,58.18,28.42,58.18,60.16v50.14c0,5.43.12,10.79.37,15.81.48,9.66-7.16,17.76-16.83,17.76h-4.91Zm-19.53-67.24c-19.88-.02-37.57,5.15-37.57,22.78,0,12.12,7.54,17.54,16.26,17.54,9.34,0,17.71-6.09,20.5-14.97.64-2.13.81-4.72.81-7.17v-18.17Z"/><path class="cls-1" d="m739.79,93.25c0,8.8-4.86,14.61-11.23,17.26-1.14.5-2.33.88-3.55,1.16-9.92,2.3-17.69,7.27-22.98,15.11-5.32,7.9-8.14,18.77-8.14,32.84v36.82c0,10.89-8.82,19.71-19.69,19.71-5.12,0-9.75-1.94-13.24-5.12-.04-.04-.06-.06-.07-.07-3.46-3.87-5.57-8.95-5.57-14.53v-77.29c0-10.31-.13-19.28-.35-27.36-.04-.99.02-1.96.15-2.91,1.14-9.32,9.1-16.57,18.79-16.57,4.97,0,9.53,1.92,12.93,5.1,2.19,2.04,3.89,4.58,4.91,7.45,1.38,2.69,2.15,5.72,2.15,8.95v6.22c5.72-13.49,15.04-25.93,26.71-25.93s19.18,8.03,19.18,19.18Z"/><path class="cls-1" d="m270.27,243.16c-4.19,54.24-48.72,97.88-103,101.23-2.29.15-4.65.21-6.95.21-32.35,0-61.5-13.91-81.68-36.11-4.8-5.24-9.01-10.92-12.71-17.03-2.72-4.52-5.18-9.34-7.26-14.25-1.41-3.26-2.67-6.71-3.77-10.14-3.2-10.38-4.9-21.34-4.9-32.79,0-43.92,25.7-81.91,62.8-99.63,1.92-.88,3.83-1.3,5.68-1.3,2.5,0,4.97.76,7.03,2.13.72.48,1.37.97,1.92,1.52.27.27.55.61.86.88.27.32.55.65.78.97,1.41,2.08,2.29,4.59,2.29,7.37,0,4.97-2.9,9.39-7.37,11.58-28.6,13.6-48.34,42.79-48.34,76.5,0,46.76,37.86,84.67,84.67,84.67,3.05,0,6.23-.15,9.39-.48,24.88-2.67,46.66-16.48,60.3-36.18,3.43-4.9,6.33-10.21,8.63-15.76,3.26-7.74,5.35-16.04,6.04-24.71,1.91-21.89-4.57-42.28-16.54-58.26-3.41-4.57-7.3-8.78-11.55-12.56-5.72-5.14-12.16-9.45-19.09-12.84-4.42-2.13-7.26-6.55-7.26-11.51,0-7.41,6.1-12.88,12.82-12.88,1.85,0,3.77.44,5.58,1.33,2.71,1.3,5.35,2.71,7.95,4.29,3.68,2.17,7.22,4.55,10.59,7.11,4.63,3.54,8.99,7.43,12.99,11.64,5.22,5.47,9.87,11.45,13.87,17.87.11.21.27.44.38.65,7.51,12.12,12.69,25.84,14.94,40.53,1.3,8.38,1.64,17.07.93,25.97Z"/></svg>