<svg xmlns="http://www.w3.org/2000/svg" xmlns:xlink="http://www.w3.org/1999/xlink" viewBox="0 0 1366.02 749.91"><defs><style>.cls-1{fill:none;}.cls-2{isolation:isolate;}.cls-3{clip-path:url(#clip-path);}.cls-4{clip-path:url(#clip-path-2);}.cls-5{fill:url(#linear-gradient);}.cls-6{fill:url(#linear-gradient-2);}.cls-7{opacity:0.5;}.cls-8{fill:#ffbd00;}.cls-9{fill:#ff9400;fill-rule:evenodd;}.cls-10{fill:url(#linear-gradient-3);}.cls-11{mix-blend-mode:multiply;fill:url(#linear-gradient-4);}.cls-12{fill:url(#linear-gradient-5);}.cls-13{fill:url(#linear-gradient-6);}</style><clipPath id="clip-path"><rect class="cls-1" x="-2.99" y="-0.05" width="1369" height="750"/></clipPath><clipPath id="clip-path-2"><rect class="cls-1" x="-2.49" y="-10.67" width="1369.02" height="767.91"/></clipPath><linearGradient id="linear-gradient" x1="628.92" y1="413.03" x2="630.36" y2="414.47" gradientUnits="userSpaceOnUse"><stop offset="0" stop-color="#414042"/><stop offset="1" stop-color="#231f20"/></linearGradient><linearGradient id="linear-gradient-2" x1="648.36" y1="374.7" x2="648.63" y2="374.97" xlink:href="#linear-gradient"/><linearGradient id="linear-gradient-3" x1="-323.28" y1="370.84" x2="941.18" y2="370.84" xlink:href="#linear-gradient"/><linearGradient id="linear-gradient-4" x1="-459.64" y1="-861.19" x2="-713.78" y2="-1115.33" gradientTransform="translate(1264.73 -99.34) rotate(-90)" gradientUnits="userSpaceOnUse"><stop offset="0" stop-color="#fff"/><stop offset="0.24" stop-color="#f8f8f8"/><stop offset="0.57" stop-color="#e6e6e6"/><stop offset="0.96" stop-color="#c8c7c7"/><stop offset="1" stop-color="#c5c4c4"/></linearGradient><linearGradient id="linear-gradient-5" x1="679.13" y1="375.64" x2="873.41" y2="375.64" xlink:href="#linear-gradient"/><linearGradient id="linear-gradient-6" x1="717.81" y1="375.64" x2="949.99" y2="375.64" xlink:href="#linear-gradient"/></defs><title>Prancheta 9</title><g class="cls-2"><g id="Camada_4" data-name="Camada 4"><g class="cls-3"><g class="cls-4"><path class="cls-5" d="M632,410.22l-3.75,8a6.26,6.26,0,0,1-.21-1.85A7.12,7.12,0,0,1,632,410.22Z"/><path class="cls-6" d="M649,374.05l-.79,1.68A6.44,6.44,0,0,1,649,374.05Z"/><g class="cls-7"><path class="cls-8" d="M1147.77-83,1022.83-49.17h0l-.65.18L948.29-29,943-27.51,889.24-12.94l-5.38,1.45-11,3-8.3,2.25s0,0,0,0L822.07,5.28l.35-.75L864.14-6.78l8.75-2.38,11.74-3.18h0l3.58-1h0L942.78-28.1l5.46-1.48L1145.4-83Z"/><path class="cls-8" d="M1189.82-83,986-27.77l-2.25.61h0L927.91-12l-4.49,1.21L909.71-7.09,904.94-5.8l-51.77,14-9.7,2.63-10.11,2.74-5.81,1.59h0l-11.61,3.14.35-.74,10.33-2.8,7.33-2h0l9.45-2.56,9.53-2.59h0l51.29-13.9,5.87-1.61h0l14-3.78h0l2.81-.77h0L983-27.61l3.24-.88L1187.44-83Z"/><path class="cls-8" d="M1231.88-83,966.09-11l-3.46.94L891.38,9.29l-7.83,2.12L832.36,25.29l-8.07,2.19L816,29.74l-6.17,1.67.35-.74,5.79-1.58,8.79-2.37,6.9-1.88h0l51.73-14,7.87-2.13,71.85-19.49,2-.54h0L1229.5-83Z"/><path class="cls-8" d="M1273.93-83,1004.62-10h0l-2.25.61L929.49,10.35l-5.8,1.57L871,26.22h0l-7,1.89L853.19,31,845,33.26,803.67,44.47l.35-.73,40.52-11,8.79-2.37,11-3,6-1.62,53.06-14.39,6.13-1.66,73.23-19.86h0l1.07-.3h0L1271.55-83Z"/><path class="cls-8" d="M1316-83l-350.3,95h0l-.6.17s0,0,0,0,0,0,0,0l-55.9,15.15-6,1.63-12.85,3.49-4,1.07L834.43,47.53l-10.32,2.79-10.19,2.77h0l-5.1,1.38-11.27,3.07.35-.74,9.87-2.68,6.93-1.88L824,49.73l10.27-2.79,51.12-13.86,5.49-1.49,12.49-3.38,5.23-1.42,55-14.92h0l3-.81,347-94.11Z"/><polygon class="cls-8" points="1358.04 -83.05 947.58 28.26 943.02 29.49 872.52 48.61 864.33 50.83 814.41 64.37 804.5 67.06 796.3 69.28 791.4 70.61 791.75 69.86 796.39 68.61 804.65 66.37 813.93 63.85 864.07 50.25 872.45 47.99 872.45 47.98 943.13 28.82 947.13 27.73 1355.65 -83.05 1358.04 -83.05"/><polygon class="cls-8" points="1373.49 -76.48 1373.49 -75.83 985.99 29.24 982.87 30.09 909.68 49.94 904.27 51.4 852.42 65.47 852.41 65.47 843.66 67.83 833.79 70.51 826.59 72.46 791.9 81.87 785.95 83.48 785.26 83.67 785.61 82.94 787.19 82.51 787.2 82.51 790.34 81.65 825.93 72 834.13 69.77 843.74 67.17 852 64.93 903.8 50.88 909.85 49.24 982.84 29.45 985.74 28.67 1373.49 -76.48"/><path class="cls-8" d="M1373.49-65.08v.65l-350.21,95-.46.13h-.07L890.82,66.45l-7.21,2L830.55,82.8h0l-5,1.35-10,2.73-10.64,2.88-11.54,3.13h0l-3,.82h0l-11.18,3,.36-.74,9.22-2.51s0,0,0,0l5.91-1.6h0l10.07-2.73,10.7-2.9,11.68-3.18h0l1.48-.39h0l38.8-10.53h0l3.36-.9h0l12.76-3.47,7-1.89,54.33-14.73h0l2.44-.67h0L1022,30.23l1.81-.49Z"/><path class="cls-8" d="M1373.49-53.68V-53L929,67.5l-5.33,1.44L869.15,83.73l-3.85,1a0,0,0,0,0,0,0l-12.35,3.34-8.21,2.23-49.36,13.38-11,3-7,1.91L773,109.81l.35-.74,4.12-1.11,6.92-1.88L795,103.2l49.4-13.4h0L853,87.48l70.63-19.15,5.25-1.43Z"/><path class="cls-8" d="M1373.49-42.27v.64L966.34,68.78l-2.71.73h0l-56,15.19h0l-3.47.94h0L890.65,89.3l-5.27,1.44-51.65,14-9.42,2.56L814.5,110l-6.71,1.81-33.18,9-7.75,2.1.35-.74,6.65-1.8,33.16-9,7.94-2.15,9.33-2.54,9.13-2.47,51.37-13.93,6.13-1.66L963.14,69l3.36-.92Z"/><path class="cls-8" d="M1373.49-30.87v.65L946.34,85.61l-2.69.73h0L872,105.77l-7.68,2.08-51.08,13.86-8.17,2.2-8.93,2.43-10.68,2.9-24.73,6.7.34-.74,11.56-3.14L773,132l12.1-3.28,11-3,9.33-2.52,7-1.91,51.68-14,7.59-2.06,54.77-14.85,1-.27.06,0Z"/><path class="cls-8" d="M1373.49-19.47v.65L985,86.52h0l-1.69.46-73.77,20-5.56,1.5-52.61,14.27-7.12,1.93h0l-10.39,2.83L826,129.63,776.64,143,765,146.18l-6.91,1.88-3.49.94.34-.73,3.37-.92,6.67-1.81,11.36-3.07,49.2-13.34,8.51-2.31,10.5-2.85,6.2-1.68s0,0,0,0l53-14.37,5.77-1.57Z"/><path class="cls-8" d="M1373.49-8.06v.64L947.23,108.18l-2.46.67h0l-54.82,14.86-5.86,1.59-13.35,3.62a0,0,0,0,0,0,0l-3.18.85h0L815,144l-10.1,2.74h0l-10.52,2.84-5.59,1.51h0L756.19,160l-7.73,2.09.35-.75,6.76-1.83,32.22-8.73,7.25-2h0l9.77-2.65,10-2.71,51.64-14,5-1.37,12.85-3.49,5.07-1.37L944,108.41s0,0,0,0l3.6-1Z"/><polygon class="cls-8" points="1373.49 3.35 1373.49 3.98 928.44 124.67 923.85 125.91 852.7 145.2 844.54 147.42 794.38 161.02 784.89 163.6 784.88 163.6 777.07 165.72 766.41 168.61 742.32 175.14 742.67 174.41 766.02 168.08 777.13 165.06 785.08 162.9 793.85 160.53 844.31 146.84 852.58 144.61 923.94 125.26 928.01 124.15 1373.49 3.35"/><path class="cls-8" d="M1373.49,14.75v.64L966.27,125.82l-3,.82-72.66,19.71-5.71,1.54h0l-52,14.1-8.24,2.24-10,2.7L807.1,169h0l-34.33,9.3-5.89,1.6-8.82,2.39-12.29,3.34-7.92,2.14-1.65.45.35-.73,1.74-.48,7.34-2,12.22-3.31,10.26-2.79,3.16-.86h0l35.22-9.55,8.44-2.28,9.86-2.68,7.62-2.07,52.09-14.12,6.14-1.67L963.13,126l2.93-.79Z"/><path class="cls-8" d="M1373.49,26.15v.65l-446.37,121h0l-.32.09h0L871.3,163l-6.8,1.85-53.07,14.39-5,1.36-10.67,2.9-10.37,2.81-48.15,13.05-7.15,1.94.35-.74,6.3-1.7,33.23-9h0l5-1.34h0l10.19-2.77,10.51-2.84,12.13-3.29h0l1.88-.52h0l37.62-10.2,4.07-1.1h0l13.18-3.57h0l6.31-1.73h0l54.25-14.71h0l3.19-.86,74.56-20.22,1.68-.46Z"/><path class="cls-8" d="M1373.49,37.55v.65L909.22,164.1l-5.31,1.43-54.21,14.7-4.31,1.17-11.71,3.18-8,2.17L775.72,200.3l-10.32,2.79-7.48,2h0L747.43,208l-23.51,6.37.34-.74L747,207.44l11-3,7.48-2,9.77-2.65,50-13.57,8.42-2.28,13-3.53.06,0,1.13-.3h0l55.89-15.15,5.17-1.4Z"/><path class="cls-8" d="M1373.49,49v.64L947.18,165.2l-3,.83L888.5,181.12l-3.66,1-13.63,3.7h0l-4.65,1.26h0l-52.3,14.18-9.08,2.47-10.38,2.82h0l-6.9,1.87-33.27,9-7.76,2.11h0l-8.21,2.23-12.54,3.39-7.79,2.12-.51.14.35-.75.78-.21h0l7-1.88,12.61-3.42,9-2.44h0l6.15-1.67L787.15,208l8.05-2.18h0l10-2.71,8.65-2.35,52-14.09,5.65-1.53,15-4.05.31-.09,57.11-15.49,3.34-.91Z"/><path class="cls-8" d="M1373.49,60.36V61L927.14,182l-2.58.7-72.51,19.67-7.38,2-51.71,14h0l-7.17,1.95h0l-9.1,2.46-10.4,2.83-47.44,12.86-7.18,1.95.35-.73,6.47-1.77,33.58-9.11h.06l2.74-.73h0l11.12-3,10.65-2.88,9.65-2.63h0l5.78-1.56,36.84-10H829l2.75-.77h0l12.88-3.49,7.18-1.95,132.38-35.89h0l1.1-.3Z"/><path class="cls-8" d="M1373.49,71.76v.65L965.8,183l-2.54.69-73,19.78L884.69,205l-53.12,14.4h0l-6.1,1.65L814.59,224l-7.88,2.14-49.43,13.41-11.28,3-8.11,2.2-9.23,2.5-23.14,6.27.35-.73,22.15-6h0L738.19,244l7.77-2.1,11-3,49.31-13.37,8.45-2.29,11.25-3,4.8-1.31,53.76-14.57,5.62-1.53,73.5-19.93,1.31-.36h0Z"/><path class="cls-8" d="M1373.49,83.16v.65L928,204.63l-2.59.7-55.08,14.94-5.21,1.41L851,225.5l-3.51.94h0L795.1,240.65l-9.62,2.62-11,3h0l-4.14,1.14h0l-34.47,9.34-9.37,2.54-6.91,1.88L707,264.55l-7.62,2.07.35-.75,7-1.91,12.72-3.45,7.39-2,8.27-2.24h0l34-9.22,6.26-1.69,10-2.71,9.55-2.6,51.67-14,5.08-1.38L865.38,221h0l4.17-1.12,55.22-15,3.36-.91Z"/><polygon class="cls-8" points="1373.49 94.58 1373.49 95.21 908.31 221.36 904.37 222.44 833.19 241.74 825.66 243.78 774.5 257.65 766.11 259.93 766.1 259.93 757.61 262.23 747.28 265.04 712.93 274.35 712.88 274.35 709.89 275.17 699.54 277.98 693.25 279.69 693.6 278.94 699.24 277.41 746.91 264.48 757.63 261.57 766.45 259.19 773.85 257.18 825.43 243.19 833.12 241.11 904.56 221.73 907.73 220.87 1373.49 94.58"/><path class="cls-8" d="M1373.49,106v.64L947,222.28h0l-3.11.84-72.66,19.7-5.32,1.44-52.83,14.33-7.26,2-11,3h0l-7.42,2-36.13,9.79s0,0,0,0l-1.6.42h0l-.06,0L737.89,279l-11.6,3.15-7.85,2.13L710,286.55l-22.86,6.2.35-.73,21.8-5.92h0l9.59-2.6,7.33-2,11.47-3.11,49.17-13.34,8.21-2.22,11.05-3,6.41-1.74,53-14.37,5.86-1.59L944,222.45h0l2.73-.74Z"/><path class="cls-8" d="M1373.49,117.38V118L851.25,259.64l-6.2,1.68-14.17,3.84h0l-1.28.35h0l-39.24,10.64h0l-2.36.64h0L776.14,280l-9.8,2.65-12.72,3.46h0l-.34.08a1,1,0,0,1-.25.06L717.27,296,707,298.77h0l-7,1.9L687.49,304,681,305.81l.35-.73,5.86-1.59L699.91,300l7.29-2,9.5-2.56,34-9.23h0l5-1.36,10.43-2.82L776,279.4l52-14.09,4.21-1.14h0l13-3.52,5.61-1.53,55.41-15,1.81-.48Z"/><path class="cls-8" d="M1373.49,128.78v.65L889.64,260.64l-4.71,1.27-56.18,15.23h0l-.84.23h0l-13.64,3.7h0l-7.6,2.06L755.89,296.9l-9.29,2.53-8.72,2.36-10,2.7-32.84,8.91h0l-6.59,1.79-7.81,2.12-5.82,1.58.35-.75,5.21-1.41,9.2-2.5,4-1.08h0L727.47,304,738,301.11l8.82-2.39,8.55-2.32h0l50.91-13.81,7.93-2.14L885,261.25h0l4.34-1.18h0Z"/><path class="cls-8" d="M1373.49,140.19v.64L928,261.64l-3.13.86-73.5,19.93h0l-4.63,1.26L794,298h0l-8.09,2.2L775.39,303l-6.72,1.82-34.9,9.46h0L728,315.87h0l-9.08,2.47-11.73,3.17-8.95,2.43h0l-7.12,1.94h0L668.71,332l.35-.74,21.11-5.73,8.64-2.34,8.21-2.22,11.72-3.18,10.4-2.82h0l3.08-.84,35.77-9.7,7.73-2.1L786,299.51h0l7.56-2.05L846,283.22l5.55-1.5,73.07-19.82,3.16-.85Z"/><path class="cls-8" d="M1373.49,151.59v.65L832.41,299l-6.67,1.81-53.07,14.4-5.13,1.39h0l-10.38,2.81-9.9,2.69-48.73,13.21-11.71,3.18-6.08,1.65-11.85,3.21-6.3,1.71.35-.74,5.53-1.51,12.36-3.35,6.08-1.65,11.21-3,35.27-9.57.09,0,.62-.17h0l12.86-3.5,10.07-2.72,11.59-3.15s0,0,0,0l2.61-.72h0l38.53-10.45,2.46-.66,13.44-3.65,6.34-1.72h0l132.13-35.83,1.29-.35Z"/><path class="cls-8" d="M1373.49,163v.65l-427.61,116s0,0,0,0l-1.34.36-73.78,20-5.11,1.4L811.26,316.1l-4.06,1.11h0l-12.69,3.44-7.29,2L737,336.24,726.68,339l-8.32,2.26-8.78,2.39-32.71,8.86-8.33,2.26-6.83,1.85-5.28,1.43.35-.73,4.74-1.29,7.69-2.08,6.66-1.8,33.12-9,9.67-2.62,8.05-2.18,9.95-2.7,50.12-13.59,7.84-2.13,14-3.81.84-.23.06,0,56-15.17,5-1.36h0Z"/><path class="cls-8" d="M1373.49,174.39V175L908.18,301.22l-2.71.73-55.7,15.11-3.88,1.05L831.69,322l-3.42.94h0l-52.9,14.33-8.73,2.37-11.48,3.11-4,1.08-35.62,9.66-7.42,2-8.79,2.39L687.56,361l-9.11,2.48h0l-5.62,1.53h0l-22.5,6.1.34-.74,21-5.69,7.64-2.07,8.08-2.19,11.91-3.23,9.52-2.59h0l5.81-1.58h0L750,343.48l6-1.62h0L766.58,339l8.52-2.31h0l52.19-14.15,4.89-1.32h0l14.58-3.95h0l1.7-.46h0L905,301.43l3.28-.89Z"/><path class="cls-8" d="M1373.49,185.8v.64L888.5,318l-3,.81h0l-71.83,19.48-7.07,1.92-52.3,14.18-6.59,1.78-10.26,2.79-9.62,2.61-48.11,13.05-12.21,3.31-5.94,1.6L650,382.64l-5.83,1.58.35-.75,5-1.35,12.22-3.31,5.79-1.57L679.38,374l48.11-13,10-2.7,10.88-2.95,5.09-1.38h0l53-14.37,7.1-1.92,72.89-19.77h0l.75-.2h0Z"/><path class="cls-8" d="M1373.49,197.21v.64l-446.06,121-2.53.68-73.77,20-4.79,1.29-53.78,14.59L786.75,357l-11.56,3.13h0l-6.81,1.85-50.26,13.62-10.63,2.89-9.19,2.5-7.78,2.11-31.43,8.52-10.52,2.85h0l-6.27,1.71L638,397.28l.34-.73,3.81-1,6.68-1.81,9.54-2.59,31.36-8.5h0l8.93-2.42,8.72-2.37L717.85,375l50-13.56,7.55-2,11.81-3.21,4.57-1.24L846,340.26l5.25-1.43,74-20.05,1.58-.44h0Z"/><path class="cls-8" d="M1373.49,208.61v.64l-542.09,147h0l-5.15,1.4-14.32,3.88h0l-1.49.4h0l-54,14.66-8.9,2.41-50.21,13.62-9.73,2.63-7.21,2-11.55,3.14-33.6,9.11-3.66,1a2.64,2.64,0,0,1,.44-.23l.29-.61,22.37-6.07,4-1.07h0l9.86-2.68,11.89-3.22,7.48-2,8.87-2.4,34.81-9.44h0l3.83-1.05h0l12-3.25L756.2,376l52.52-14.24,4.19-1.14,13.6-3.69h0l4.21-1.14,56.11-15.22,1.94-.52Z"/><path class="cls-8" d="M1373.49,220v.64L869.88,357.22l-3.81,1-72,19.53-6.93,1.88-51.3,13.91-8.49,2.3-9.19,2.5-8.83,2.39-35.8,9.71h0l-2.14.58-10.46,2.84h0l-12.56,3.41-6.6,1.79-11,3-5,1.35.34-.74,4-1.09,11.78-3.2,6.33-1.72,12.32-3.34,48.24-13.07,9.48-2.58,9.22-2.5h0l7.77-2.11,51.52-14,7.17-1.95,72.25-19.6,3.08-.84s0,0,0,0Z"/><path class="cls-8" d="M1373.49,231.42v.64L907.83,358.33l-2.49.68L831.9,378.92l-4.4,1.19-53.12,14.41h0l-7.21,2-11.79,3.19h0L750.42,401h0l-38.48,10.44-.5.13-12.77,3.46L687.8,418l-9,2.44L672,422.28l-31.93,8.66L628.4,434.1l-5.19,1.4-3.58,1,.35-.74,3.19-.86,5.44-1.47,10.91-3h0l31.54-8.55h0l8.24-2.24,8.37-2.27,10.78-2.93,51.07-13.85,6.32-1.71,11.41-3.09,6.67-1.81,53-14.38,5.11-1.38,73.24-19.86,2.31-.63Z"/><polygon class="cls-8" points="1373.49 242.82 1373.49 243.47 812.99 395.45 806.85 397.12 736.92 416.08 727.88 418.53 678.6 431.9 668.15 434.74 661.23 436.61 649.84 439.69 618.57 448.18 613.49 449.55 613.84 448.82 617.41 447.84 649.46 439.16 661.29 435.94 668.31 434.04 668.32 434.04 678.11 431.39 727.63 417.95 736.8 415.47 806.85 396.48 812.69 394.89 1373.49 242.82"/><path class="cls-8" d="M1373.49,254.22v.65L850.64,396.65l-4.27,1.16-57.17,15.5-14.32,3.88L768.17,419,717.1,432.86,708,435.33,698.22,438l-8.14,2.2h0l-32.84,8.91-7.37,2h0l-8.24,2.24-12.9,3.49L622,458.65l-9.46,2.55-5.2,1.41.35-.72,4.12-1.13,10.6-2.87,6.13-1.66,12.9-3.49,9.16-2.49h0l5.47-1.48h0l33.38-9.07,9-2.43,9.6-2.61,8.6-2.33,51.1-13.86,7.15-1.94,71.29-19.33,4.31-1.17Z"/><path class="cls-8" d="M1373.49,265.62v.65L888.55,397.78h0l-1.66.45-58,15.73h-.07l-.72.19h0l-15.55,4.22h0l-3.67,1h0l-53.23,14.43L747.77,436l-13.09,3.55h0l-2.63.71s0,0,0,0a0,0,0,0,1,0,0l-36.34,9.88L688.76,452l-8.93,2.43-11,3-11.13,3h0l-2.38.64h0l-33.85,9.18-12.55,3.4-4.61,1.25-3.06.83.35-.75,2.71-.74,4.73-1.28,12-3.24,32.41-8.8h0l5.8-1.57h0l9.37-2.54,11.14-3,9.72-2.64,5.23-1.41h0L730.58,440h0l5.13-1.38,12.06-3.27,7.46-2L808,419l4.86-1.32,73.29-19.87,2.65-.72Z"/><path class="cls-8" d="M1373.49,277v.64L793.52,435l-6.38,1.73L734.32,451h0l-6,1.63-10.53,2.85-8.69,2.36-49.22,13.34-11.13,3-7.31,2-11,3-30,8.14-5.32,1.44.35-.74,4.13-1.11L630,478.65l11.64-3.15,7.24-2,10.68-2.9,49.23-13.35,9.11-2.48,11.09-3,4.42-1.2h0L787,436.06l6.31-1.71Z"/><path class="cls-8" d="M1373.49,288.43v.65L906.86,415.62l-1,.28L831.63,436l-4.35,1.18-54.21,14.7-5.18,1.4-12.49,3.4h0l-5.55,1.5L697.9,472.28,688.06,475l-9.16,2.49-7.58,2.05h0l-32.66,8.86-9.34,2.53-6.55,1.78-13.29,3.6-6.83,1.85-8.8,2.39L589,501.83l.35-.75,3.69-1,10.16-2.75,6.11-1.66L622.64,492l7.14-1.94,8.11-2.2L670.6,479s0,0,0,0l8.65-2.34,8.79-2.39,9.53-2.58,51.62-14,6.48-1.75,12.69-3.44,3.83-1L827,436.63l4.64-1.25Z"/><path class="cls-8" d="M1373.49,299.84v.64L811.85,452.79l-4.4,1.19L736.3,473.27,728,475.53l-50.62,13.73L669,491.54h0l-8.09,2.19-11.15,3-34.88,9.47h0l-1.4.38h0l-10.28,2.78-13.57,3.68-5,1.36-1.72.46.35-.74,1.47-.4,4.87-1.32h0l13.23-3.59,32-8.68h0l3.74-1h0l10.89-3,11.41-3.09,8.51-2.31h0l7.26-2h0l35.44-9.61h0l4-1.09,11.81-3.2,8.2-2.22L790.19,458h0l1.95-.54,15.62-4.24h0l3.34-.9,56.14-15.22,2.34-.64Z"/><path class="cls-8" d="M1373.49,311.24v.64L850,453.83l-3.44.94-72.12,19.55L768,476.08l-52,14.1-7.33,2h0L698.09,495l-8.42,2.28-36,9.76a6.23,6.23,0,0,0-.62.15L641,510.52l-12.15,3.29-6.77,1.84L612,518.38l-29.68,8-.27-.57,29.35-8,10.94-3,6.44-1.75,12-3.23,48.49-13.15,9-2.45,10.73-2.9,6.36-1.73,52.52-14.24,6.56-1.78,72.32-19.61,2.84-.78Z"/><path class="cls-8" d="M1373.49,322.65v.63l-485,131.52-2.19.59-73.89,20-4.08,1.1-53.72,14.58-6.37,1.72-12.84,3.48h0l-4.76,1.29h0L692.5,508l-.1,0-.94.26-.08,0-12.07,3.27-10.48,2.84h0l-9.92,2.69s0,0,0,0l-5.49,1.5-33.13,9-10.65,2.88h0L603.8,532l-13.48,3.65-3.17.86-.27-.56,3.19-.87,13.65-3.7,6.19-1.68,9.74-2.65,32.76-8.88h0l7.21-1.95,9-2.46L679.11,511l50.76-13.77,6.06-1.65,12.55-3.4,5.6-1.51L807.89,476l4.72-1.29,73.61-20,2.12-.57Z"/><polygon class="cls-8" points="1373.49 334.05 1373.49 334.69 792.73 492.18 787.51 493.6 717.44 512.6 708.96 514.89 658.89 528.48 649.29 531.08 641.22 533.27 630.16 536.26 598.29 544.91 592 546.61 591.98 546.62 591.71 546.04 593.45 545.57 596.61 544.71 629.79 535.72 641.26 532.6 649.52 530.37 658.32 527.98 708.73 514.31 717.37 511.97 787.58 492.93 792.33 491.64 1373.49 334.05"/><path class="cls-8" d="M1373.49,345.45v.65l-542.27,147-4,1.08-71.72,19.44-6.23,1.69L697,529.54l-8.63,2.34L679,534.41h0l-8.3,2.25-33.93,9.21h0l-6.1,1.66-8.51,2.3-12.61,3.43-6.78,1.83-6,1.62-.28-.58,6.63-1.79,6.27-1.7L622,549.25h0l9.94-2.7h0l3.27-.89h0l35-9.49,9.08-2.45,9.29-2.53,8-2.17h0l52.29-14.17L755.6,513l71.58-19.41,3.78-1Z"/><path class="cls-8" d="M1373.49,356.85v.65L869.39,494.19h0l-2,.55-75.79,20.55h0l-1.23.34h-.05l-54.77,14.85-7.28,2-12.31,3.35-3.86,1-36.55,9.91h0l-5.3,1.44h0l-9.84,2.68-10.75,2.9-11.3,3.08h0l-3.28.89h0l-32.83,8.91-.54.14-.27-.57.37-.09,31.7-8.61,6.06-1.64,10-2.69,10.8-2.94,11.16-3h0l2.53-.69L711,536.49l5.63-1.52,11.66-3.16,6.83-1.85,53.94-14.63,3.57-1h0L867,494.2l2.43-.66Z"/><path class="cls-8" d="M1373.49,368.25v.65L848.56,511.26h0l-1.08.29L774,531.47l-5.94,1.61-53.66,14.56h0l-4.63,1.25L698,552.07l-8.67,2.35h0l-49.11,13.32-11.14,3-7,1.88-10.64,2.88-5,1.36-.28-.56L611,575,622.31,572l6.83-1.85,10.71-2.91L689,553.87l9-2.44,13-3.53h0l1.88-.51h.06L768,532.44l5.72-1.55Z"/><path class="cls-8" d="M1373.49,379.66v.65L887.85,512l-1.33.36h0L812.24,532.5l-4.16,1.13-55,14.91h0l-3.92,1.06-13.48,3.66-5.81,1.57-51.22,13.89h0L669,571.34l-9.51,2.59h0l-7.05,1.91-33.21,9L611.3,587l-.27-.56,7.33-2,33.29-9,8.23-2.23,9.08-2.45,9.42-2.56,51-13.82,6.59-1.79,14.65-4a.19.19,0,0,1,.1,0l.34-.09.12,0L807.89,533l4.27-1.16Z"/><path class="cls-8" d="M1373.49,391.06v.65L849.19,533.89l-.87.24-56.66,15.36-3.66,1-70.92,19.23L708.84,572l-50.91,13.81L649.74,588l-8.51,2.31-11.59,3.14-10.39,2.81-3.12.85-.28-.58,4.72-1.27,8.8-2.4h0l11.79-3.19,9.05-2.46,6.89-1.87,36.09-9.78,2.37-.65,13.14-3.56,8.15-2.21,53.7-14.56,2.64-.72,15.49-4.19h0l1.72-.49h.06l56.92-15.43,2.52-.69Z"/><path class="cls-8" d="M1373.49,402.47v.64L830.43,550.38l-2.84.77-72.37,19.63-6.29,1.7-52.71,14.29-7.5,2h0l-9.43,2.56L670,593.89l-34.55,9.39h0l-3.6,1-9.61,2.61-1.19.32-.27-.57,1.17-.32,47.73-12.94,9.76-2.65,9.75-2.64,6.44-1.74,53.18-14.43,6.43-1.74L828,550.39h0l1.43-.38h0Z"/><path class="cls-8" d="M1373.49,413.88v.63L869.05,551.31l-1.87.5-74.74,20.27L789,573h0l-54.16,14.7-6.45,1.75-11.59,3.14-6.12,1.66-36.85,10-2.48.68h0l-10.83,2.93L649,611l-8.62,2.34-8,2.18h0l-6.55,1.78-.28-.58,6.06-1.64,9.28-2.52,8-2.18,11.39-3.09,49.78-13.49,7.06-1.92,11.56-3.14h0l5.53-1.5,54.17-14.68,4.29-1.17,74.65-20.24,1.25-.34Z"/><path class="cls-8" d="M1373.49,425.28v.64l-600,162.69-5.41,1.47-56,15.2h0l-.69.19h0L698.2,609h0l-9.6,2.61-48.68,13.2-9.29,2.51-.28-.56,9-2.45,34-9.21,4.06-1.11,11-3,9.68-2.63,53.47-14.49h0l2.49-.68h0l14.24-3.87,4.71-1.27Z"/><polygon class="cls-8" points="1373.49 436.68 1373.49 437.32 811.98 589.59 807.91 590.69 736.29 610.11 728.84 612.13 678.44 625.8 668.44 628.51 660.87 630.57 650.2 633.46 650.19 633.46 635.46 637.46 635.18 636.89 649.78 632.92 660.95 629.9 668.59 627.83 677.96 625.28 728.5 611.59 736.3 609.47 807.95 590.04 811.62 589.04 1373.49 436.68"/><path class="cls-8" d="M1373.49,448.08v.65l-523.82,142-2.26.62L789.87,607h-.07l-.75.2h0l-15.14,4.11-4.4,1.19-52.54,14.25-8.76,2.37L697.8,632h0l-7.19,1.95-32.92,8.92-8.16,2.22h0l-7.68,2.08-1.55.42L640,647l1.67-.45,8.49-2.3h0l6.57-1.78,33.19-9,8.2-2.23,10.13-2.74,8.23-2.24,52.31-14.19,5.36-1.44,73-19.81,2.48-.66Z"/><path class="cls-8" d="M1373.49,459.48v.65L755.36,627.75l-7.27,2L696,643.86l-7.5,2L680,648.2l-11.21,3-11,3s0,0,0,0L655,655h0l-9.9,2.68-.28-.57,8.48-2.31,5.91-1.6h0l9.27-2.51,11.4-3.09,9.14-2.48,6.06-1.65h0l36.17-9.81,3.7-1,13.1-3.55,6.95-1.89Z"/><path class="cls-8" d="M1373.49,470.89v.64l-505.34,137h-.06l-.58.16h0l-74.39,20.18-5.5,1.49-53,14.38-6.36,1.72h0l-10.34,2.81-8.71,2.37-48.39,13.12-10.83,2.94-.28-.58,10.8-2.93,48.31-13.1,9.16-2.48,10.77-2.92h0l5-1.36h0l53.79-14.59,5.44-1.47Z"/><path class="cls-8" d="M1373.49,482.29v.65L831.23,630l-3.46.94-54.54,14.79-5.35,1.44-12.5,3.39L749.94,652,698.55,666l-10.78,2.93L679,671.27h0l-7.47,2-16.78,4.55-.28-.57,16.25-4.41,8.74-2.37,8.21-2.23,10.64-2.88,50.93-13.81h0l6.43-1.75,12.62-3.42h0l4-1.1h0l55-14.92,3.91-1.06Z"/><path class="cls-8" d="M1373.49,493.69v.65L811.82,646.65l-4.24,1.15L736.78,667l-8.94,2.43-49.46,13.41L668,685.66l-6.32,1.72-2,.55-.27-.57,2.27-.61,6.6-1.79h0l9.59-2.61L713,672.8l2.56-.7h0l12-3.26,9-2.44,71.26-19.33,3.22-.87h0Z"/><polygon class="cls-8" points="1373.49 505.11 1373.49 505.74 849.88 647.73 846.79 648.56 774.8 668.09 768.14 669.89 716.86 683.8 707.74 686.27 707.74 686.28 698.94 688.67 688.99 691.36 664.42 698.02 664.15 697.45 688.55 690.84 699.06 687.99 707.96 685.57 716.33 683.3 767.8 669.35 774.8 667.45 846.9 647.9 849.44 647.21 1373.49 505.11"/><path class="cls-8" d="M1373.49,516.51v.64L888.36,648.7l-1.77.48-74.31,20.15-3.3.89-53.62,14.55-7.78,2.11h0l-11.27,3-6.43,1.74L695.56,701l-7.14,1.93-8,2.17-11.16,3-.27-.57,11.26-3,9-2.44h0l5.22-1.41h0l34.73-9.43h0l7.5-2h0l11-3,7.17-1.94,53.33-14.46,4.39-1.19,73.75-20,1.86-.5Z"/><path class="cls-8" d="M1373.49,527.91v.64L793.29,685.89l-6.28,1.7-53,14.36-5.88,1.59h0l-9.7,2.64L708,709h0l-33.94,9.2-.27-.56,18.73-5.1h0l4.25-1.15h0l10.94-3h0l10.61-2.88,10.6-2.88h0l3.82-1h0l38.32-10.39h0l1.81-.48,14-3.8,6-1.62Z"/><path class="cls-8" d="M1373.49,539.31V540l-542,147-4.47,1.2-54.38,14.75h0l-4.78,1.3h0l-11.55,3.12-7.85,2.13L698.8,722.92,687,726.11l-6.62,1.79-1.49.41-.28-.57,1.94-.53,6.44-1.74,11.47-3.12,49.59-13.45,8.3-2.25,12.41-3.36,2.52-.68h0L827,687.51l4.37-1.17Z"/><path class="cls-8" d="M1373.49,550.71v.65L869.64,688l-2.45.67-55.88,15.15-3.82,1-14.43,3.91-4,1.08-52,14.11L727,726.67l-9.59,2.6L711,731l-27.24,7.38-.27-.58,26.62-7.21h0l7.85-2.14,9-2.43,9.91-2.68,51.39-13.94,5.29-1.43h0l15-4.06h0l1-.28h0l57.17-15.5,3-.81Z"/><polygon class="cls-8" points="1373.49 562.12 1373.49 562.77 849.62 704.82 846.54 705.66 775.26 724.99 767.17 727.18 716.77 740.85 707.36 743.39 699.75 745.46 688.57 748.49 688.3 747.92 699.72 744.83 707.7 742.66 707.71 742.66 716.12 740.38 766.98 726.59 775.09 724.39 847.25 704.82 848.46 704.5 1373.49 562.12"/><polygon class="cls-8" points="1373.49 573.52 1373.49 574.17 888.23 705.76 886.25 706.3 813.21 726.1 807.45 727.67 755.18 741.84 747.25 743.99 737.46 746.65 728.28 749.13 695.02 758.16 693.4 758.6 693.13 758.02 693.46 757.93 727.82 748.61 737.57 745.96 747.55 743.25 754.57 741.36 807.13 727.11 813.24 725.45 1373.49 573.52"/><path class="cls-8" d="M1373.49,584.92v.65L849,727.81l-55.74,15.12-6.69,1.82L774.6,748l-5.24,1.42-35.91,9.74h0l-5.2,1.42-9.34,2.53-11.8,3.2-8.54,2.31-.33.09-.28-.57,1.13-.3,7.89-2.15,11.75-3.18,11.22-3.05.06,0,1.21-.32s0,0,0,0L768.6,749l6.47-1.77L786.72,744l6-1.62,54.66-14.82h0l3-.81Z"/><path class="cls-8" d="M1373.49,596.33V597L831.65,743.9l-5.17,1.4-54.69,14.84-3.62,1h0l-11.24,3-9.54,2.58-44.32,12-.27-.57,29.9-8.09h0l2-.55h0l12.42-3.37,9.69-2.63,69.72-18.9,4.7-1.28Z"/><path class="cls-8" d="M1373.49,607.74v.64L869.85,745l-3.37.91-56.43,15.3-2.12.58h0l-13.75,3.73-6.78,1.84-50.12,13.59-11,3-7.29,2-10.14,2.74-1,.27-.27-.58.71-.2h0l10.9-3,7.09-1.92,10.58-2.88L787,766.78l7.29-2,72.2-19.57,3.15-.86Z"/><path class="cls-8" d="M1373.49,619.14v.64L907,746.28h0l-.41.11h-.1l-58,15.75h0l-1.24.33s0,0,0,0,0,0,0,0,0,0,0,0,0,0,0,0l-15.94,4.32-2.24.61L775.5,782l-9.11,2.46-10.61,2.88-5.47,1.48h0l-33.63,9.12L712.73,799l-.28-.58,3.43-.93,33.52-9.09h0l7-1.9h0l9.91-2.69,8.87-2.4,52.51-14.25h0l4.11-1.11,73.92-20,1.81-.49Z"/><path class="cls-8" d="M1373.49,630.54v.64L887.44,763h0l-.78.21-73,19.79-7.14,1.93-51.47,14-8.17,2.21-8.67,2.34-11.29,3.07-9.39,2.55-.27-.57,9.37-2.54,11.55-3.13,9.12-2.48,7-1.89h0l52.07-14.13,7.11-1.93Z"/><path class="cls-8" d="M1373.49,642v.64L851,784.26l-4.58,1.25L793.09,800l-6.92,1.87-10.26,2.79-8.33,2.26-34.82,9.44h0l-4.26,1.16h0l-6.08,1.65-.28-.57,45-12.21L776,804l10.49-2.84h0l5.86-1.6h0L846.06,785h0l5-1.36Z"/><path class="cls-8" d="M1373.49,653.35V654L831.56,801l-5.52,1.5L812.86,806h0l-3.91,1.07L770.7,817.47h-.05l-1.75.47s0,0,0,0l-11.46,3.11-11,3L737,826.59h0l-6.9,1.89h0l-1.78.47h-2.38l1-.28,2.22-.59,8.38-2.28h0l8.74-2.37,10.91-3L808,806.69l5.4-1.47,12.9-3.5,4.54-1.23,56-15.19,1.7-.46Z"/><polygon class="cls-8" points="770.36 828.95 1373.49 665.4 1373.49 664.75 767.97 828.95 770.36 828.95"/><polygon class="cls-8" points="812.41 828.95 1373.49 676.8 1373.49 676.15 810.03 828.95 812.41 828.95"/><polygon class="cls-8" points="854.46 828.95 1373.49 688.2 1373.49 687.56 852.08 828.95 854.46 828.95"/><polygon class="cls-8" points="896.51 828.95 1373.49 699.61 1373.49 698.96 894.13 828.95 896.51 828.95"/><polygon class="cls-8" points="938.57 828.95 1373.49 711.01 1373.49 710.36 936.18 828.95 938.57 828.95"/><polygon class="cls-8" points="980.62 828.95 1373.49 722.41 1373.49 721.77 978.24 828.95 980.62 828.95"/><polygon class="cls-8" points="1022.67 828.95 1373.49 733.82 1373.49 733.17 1020.29 828.95 1022.67 828.95"/><polygon class="cls-8" points="1064.72 828.95 1373.49 745.22 1373.49 744.58 1062.34 828.95 1064.72 828.95"/></g><g class="cls-7"><path class="cls-9" d="M584.69,512.9a8.08,8.08,0,0,1-.05.85c0,.23-.06.46-.1.68a7.6,7.6,0,0,1-4,5.26l2.25-4.8.35-.74,1.36-2.89A8.07,8.07,0,0,1,584.69,512.9Z"/><path class="cls-9" d="M584.39,530.73l-1.29-2.67A7.88,7.88,0,0,1,584.39,530.73Z"/><path class="cls-9" d="M604.3,474.58a2.62,2.62,0,0,1,0,.28,7.79,7.79,0,0,1-6,7.07l2.93-6.24.35-.75,1.82-3.88a7.25,7.25,0,0,1,.89,3.14C604.3,474.33,604.3,474.45,604.3,474.58Z"/><path class="cls-9" d="M604.1,494.19a7.35,7.35,0,0,1-1,3.14,6.52,6.52,0,0,1-.51.78,7.29,7.29,0,0,1-6.29,3,7.43,7.43,0,0,1-2.51-.58,6.11,6.11,0,0,1-.85-.42,7.57,7.57,0,0,1-2.26-2l4.37-9.3.35-.74.78-1.68a5.87,5.87,0,0,1,.84,0,7.32,7.32,0,0,1,2.51.58,5.43,5.43,0,0,1,.84.41A7.32,7.32,0,0,1,604.1,494.19Z"/><path class="cls-9" d="M623.22,435.88a7.19,7.19,0,0,1-6.63,7.08l3-6.48.35-.74,2-4.2a7,7,0,0,1,1.21,3.34,4.21,4.21,0,0,1,0,.62C623.22,435.62,623.22,435.75,623.22,435.88Z"/><path class="cls-9" d="M642.31,396.93a7.1,7.1,0,0,1-7.37,7.11h-.07l3.17-6.76.34-.73L640.5,392a7.1,7.1,0,0,1,1.69,3.49,6,6,0,0,1,.09.63C642.3,396.4,642.31,396.67,642.31,396.93Z"/><path class="cls-9" d="M596.57,520.05a7.2,7.2,0,1,1,7.36-7.13A7.09,7.09,0,0,1,596.57,520.05Z"/><path class="cls-9" d="M596.7,525.45a7.1,7.1,0,1,1-7.11,7.12A7.1,7.1,0,0,1,596.7,525.45Z"/><path class="cls-9" d="M662,358.6a7.12,7.12,0,0,1-7.19,7,6.54,6.54,0,0,1-1.78-.25l3.43-7.32.35-.73,2.17-4.61a7.1,7.1,0,0,1,2.57,3.32,5.8,5.8,0,0,1,.19.59A6.65,6.65,0,0,1,662,358.6Z"/><path class="cls-9" d="M623.08,455.08a7.24,7.24,0,0,1-.65,2.81,5.57,5.57,0,0,1-.41.76,7.26,7.26,0,0,1-9.46,2.55,4.57,4.57,0,0,1-.73-.44,6.82,6.82,0,0,1-2.34-2.68l4-8.53.35-.73.44-.94a6.58,6.58,0,0,1,1.72-.19,7.17,7.17,0,0,1,1.41.15,6.46,6.46,0,0,1,1.16.34A7.11,7.11,0,0,1,623.08,455.08Z"/><path class="cls-9" d="M642.2,416.6a7,7,0,0,1-.26,1.79,4.56,4.56,0,0,1-.24.71,7.17,7.17,0,0,1-6.73,4.53,7.09,7.09,0,0,1-4.25-1.56,5.23,5.23,0,0,1-.56-.48,7.21,7.21,0,0,1-1.94-3.4,6.26,6.26,0,0,1-.21-1.85,7.14,7.14,0,0,1,3.52-5.89,2.64,2.64,0,0,1,.44-.23,6.76,6.76,0,0,1,3.13-.76h.09A7.13,7.13,0,0,1,642.2,416.6Z"/><path class="cls-9" d="M681.1,319.55a7.21,7.21,0,0,1-7.07,7.19,6.86,6.86,0,0,1-2.62-.54l3.43-7.31.35-.75,2.17-4.63a7.33,7.33,0,0,1,3,3.22,6,6,0,0,1,.26.58A6.71,6.71,0,0,1,681.1,319.55Z"/><path class="cls-9" d="M623,474.51a7.09,7.09,0,1,1-7.19-7A7.17,7.17,0,0,1,623,474.51Z"/><path class="cls-9" d="M603.67,571a.17.17,0,0,1,0,.07l-2-4.23-.27-.57-.37-.77a8,8,0,0,1,.74.68,4.32,4.32,0,0,1,.44.52A6.73,6.73,0,0,1,603.67,571Z"/><path class="cls-9" d="M720,222.91a6.73,6.73,0,0,1-1.08,3.54h0a7.05,7.05,0,0,1-.62.82,6.28,6.28,0,0,1-.85.86l.34-.72.35-.75,1.85-3.94A1.09,1.09,0,0,1,720,222.91Z"/><path class="cls-9" d="M603.72,551.76a6.56,6.56,0,0,1-.56,2.58,5.28,5.28,0,0,1-.38.75,7.16,7.16,0,0,1-5.06,3.52l-.91-1.9-.28-.58-4.54-9.5,0,0a7.07,7.07,0,0,1,4.6-1.9h.16a6.4,6.4,0,0,1,1.52.2A7.19,7.19,0,0,1,603.72,551.76Z"/><path class="cls-9" d="M661.84,377.76a6,6,0,0,1-.1,1.05,4.82,4.82,0,0,1-.16.68,7.19,7.19,0,0,1-6.8,5.19,7,7,0,0,1-4.78-2,4,4,0,0,1-.48-.52,6.84,6.84,0,0,1-1.67-4.5,6.83,6.83,0,0,1,1.1-3.57,7.07,7.07,0,0,1,6-3.34A7.14,7.14,0,0,1,661.84,377.76Z"/><path class="cls-9" d="M622.86,493.71a7,7,0,1,1-7-6.95A7.07,7.07,0,0,1,622.86,493.71Z"/><path class="cls-9" d="M700.18,280.89a7.07,7.07,0,0,1-7.07,6.89,6.87,6.87,0,0,1-3.23-.91l3.37-7.18.34-.75,2.14-4.55a7.28,7.28,0,0,1,3.51,3c.1.18.21.37.3.57A6.69,6.69,0,0,1,700.18,280.89Z"/><path class="cls-9" d="M622.77,609.89a6.53,6.53,0,0,1-.09.9L621,607.18l-.27-.57-1.36-2.82a7,7,0,0,1,2.53,2.5c.1.19.2.37.29.57A6.69,6.69,0,0,1,622.77,609.89Z"/><path class="cls-9" d="M642,648.49a6.78,6.78,0,0,1-.29,2l-1.42-3L640,647l-2.28-4.76a7,7,0,0,1,3.95,4.31,4.39,4.39,0,0,1,.15.6A6.17,6.17,0,0,1,642,648.49Z"/><path class="cls-9" d="M635,442.59a6.89,6.89,0,1,1,7-6.62A7,7,0,0,1,635,442.59Z"/><path class="cls-9" d="M739,183.87a6.78,6.78,0,0,1-.69,3.13,4.71,4.71,0,0,1-.44.76,6.33,6.33,0,0,1-2.49,2.24l.84-1.79.35-.73,2.28-4.89A6.13,6.13,0,0,1,739,183.87Z"/><path class="cls-9" d="M654.81,403.55a6.71,6.71,0,1,1,6.76-6.68A6.59,6.59,0,0,1,654.81,403.55Z"/><path class="cls-9" d="M719.75,241.91a6.68,6.68,0,0,1-6.7,6.83,6.81,6.81,0,0,1-4.52-1.61l3.12-6.65.35-.73,2.07-4.43a6.69,6.69,0,0,1,4.4,2.66,5.21,5.21,0,0,1,.36.55A6.86,6.86,0,0,1,719.75,241.91Z"/><path class="cls-9" d="M661.63,687.31v.07a6.7,6.7,0,0,1-.77,3.2l-1.26-2.65-.27-.57-3.16-6.6a6.67,6.67,0,0,1,5.43,6A5.25,5.25,0,0,1,661.63,687.31Z"/><path class="cls-9" d="M622.64,513a6.74,6.74,0,1,1-6.61-6.84A6.6,6.6,0,0,1,622.64,513Z"/><path class="cls-9" d="M674.17,332a6.8,6.8,0,1,1-6.95,6.6A6.77,6.77,0,0,1,674.17,332Z"/><path class="cls-9" d="M680.74,725.88a6.54,6.54,0,0,1-.16,1.33,5,5,0,0,1-.17.69,6.51,6.51,0,0,1-.86,1.73l-.63-1.32-.28-.57-4.16-8.7A6.54,6.54,0,0,1,680.74,725.88Z"/><path class="cls-9" d="M674,351.93a6.62,6.62,0,1,1-6.63,6.54A6.53,6.53,0,0,1,674,351.93Z"/><path class="cls-9" d="M641.72,629.24a6.56,6.56,0,0,1-6.66,6.77,1.62,1.62,0,0,1-.31,0l-4.13-8.63-.28-.56-.61-1.29a6.52,6.52,0,0,1,5.28-2.7,6.6,6.6,0,0,1,4.37,1.54,5,5,0,0,1,.53.5A6.43,6.43,0,0,1,641.72,629.24Z"/><path class="cls-9" d="M719.59,261.76a6.62,6.62,0,1,1-6.47-6.68A6.55,6.55,0,0,1,719.59,261.76Z"/><path class="cls-9" d="M699.93,300.59a6.7,6.7,0,1,1-6.71-6.74A6.57,6.57,0,0,1,699.93,300.59Z"/><path class="cls-9" d="M622.53,532.56a6.62,6.62,0,1,1-6.55-6.62A6.54,6.54,0,0,1,622.53,532.56Z"/><path class="cls-9" d="M738.8,203.7A6.65,6.65,0,0,1,727,207.84l3.08-6.57.35-.74,1.62-3.45h.23a6.51,6.51,0,0,1,4.45,1.76,3.94,3.94,0,0,1,.5.5A6.64,6.64,0,0,1,738.8,203.7Z"/><path class="cls-9" d="M641.78,454.75a6.68,6.68,0,1,1-6.84-6.56A6.55,6.55,0,0,1,641.78,454.75Z"/><path class="cls-9" d="M661.44,667.8a6.56,6.56,0,0,1-6.68,6.49,6.49,6.49,0,0,1-1.83-.29l-3-6.25-.28-.58-.92-1.94a6.61,6.61,0,0,1,11.72-1,3.15,3.15,0,0,1,.31.57A6.51,6.51,0,0,1,661.44,667.8Z"/><path class="cls-9" d="M758.52,145.74a6.52,6.52,0,0,1-.21,1.61c-.06.24-.14.48-.22.71a6.53,6.53,0,0,1-5,4.1L754.6,149l.34-.73,2.74-5.83A6.63,6.63,0,0,1,758.52,145.74Z"/><path class="cls-9" d="M661.43,416.65A6.59,6.59,0,1,1,655,410,6.57,6.57,0,0,1,661.43,416.65Z"/><path class="cls-9" d="M622.51,590.49a6.56,6.56,0,0,1-1.94,4.75,6.12,6.12,0,0,1-1.32,1,6.55,6.55,0,0,1-3.1.89l0,0-.28-.58L611.3,587l-.27-.56-.1-.21a6.5,6.5,0,0,1,4.91-2.25,6.61,6.61,0,0,1,2.52.47,4.14,4.14,0,0,1,.85.4A6.52,6.52,0,0,1,622.51,590.49Z"/><path class="cls-9" d="M680.6,706.64a6.62,6.62,0,0,1-6.72,6.47,6.34,6.34,0,0,1-2.52-.59l-2.1-4.4-.27-.57-1.29-2.69a6.55,6.55,0,0,1,12.55-.36,3.54,3.54,0,0,1,.17.58A5.84,5.84,0,0,1,680.6,706.64Z"/><path class="cls-9" d="M635.11,468a6.57,6.57,0,1,1-6.59,6.56A6.57,6.57,0,0,1,635.11,468Z"/><path class="cls-9" d="M693.16,313.13a6.56,6.56,0,1,1-6.5,6.7A6.57,6.57,0,0,1,693.16,313.13Z"/><path class="cls-9" d="M622.46,551.81a6.55,6.55,0,1,1-6.31-6.64A6.65,6.65,0,0,1,622.46,551.81Z"/><path class="cls-9" d="M738.71,222.81a6.55,6.55,0,1,1-6.43-6.51A6.62,6.62,0,0,1,738.71,222.81Z"/><path class="cls-9" d="M699.75,745.4v.06a6.63,6.63,0,0,1-6.44,6.45,6.37,6.37,0,0,1-3.63-1.1l-1.11-2.32-.27-.57-1.54-3.22a6.51,6.51,0,0,1,13,.13A5.59,5.59,0,0,1,699.75,745.4Z"/><path class="cls-9" d="M680.56,377.56a6.53,6.53,0,1,1-6.52-6.38A6.63,6.63,0,0,1,680.56,377.56Z"/><path class="cls-9" d="M713,287.33a6.49,6.49,0,1,1,6.5-6.43A6.65,6.65,0,0,1,713,287.33Z"/><path class="cls-9" d="M758.43,164.92A6.5,6.5,0,0,1,746,167.41l2.5-5.33.35-.75,1.29-2.74a6.28,6.28,0,0,1,2-.26,6.36,6.36,0,0,1,3.43,1.17,5.8,5.8,0,0,1,.62.49A6.44,6.44,0,0,1,758.43,164.92Z"/><path class="cls-9" d="M622.41,571a6.51,6.51,0,1,1-6.32-6.6A6.65,6.65,0,0,1,622.41,571Z"/><path class="cls-9" d="M725.77,241.78a6.4,6.4,0,1,1,6.26,6.6A6.48,6.48,0,0,1,725.77,241.78Z"/><path class="cls-9" d="M641.59,493.91a6.49,6.49,0,1,1-6.27-6.68A6.65,6.65,0,0,1,641.59,493.91Z"/><path class="cls-9" d="M699.67,338.9a6.44,6.44,0,1,1-6.45-6.48A6.56,6.56,0,0,1,699.67,338.9Z"/><path class="cls-9" d="M655,655a6.42,6.42,0,1,1,6.32-6.61A6.56,6.56,0,0,1,655,655Z"/><path class="cls-9" d="M777.57,106.7a5.28,5.28,0,0,1-.11,1.26,5.58,5.58,0,0,1-.16.68,6.66,6.66,0,0,1-5.93,4.62l1.62-3.45.35-.74,2.86-6.1A6.34,6.34,0,0,1,777.57,106.7Z"/><path class="cls-9" d="M661.3,435.79a6.46,6.46,0,1,1-6.36-6.54A6.59,6.59,0,0,1,661.3,435.79Z"/><path class="cls-9" d="M641.56,609.71a6.46,6.46,0,1,1-6.45-6.45A6.58,6.58,0,0,1,641.56,609.71Z"/><path class="cls-9" d="M758.29,184a6.38,6.38,0,1,1-6.24-6.37A6.45,6.45,0,0,1,758.29,184Z"/><path class="cls-9" d="M680.36,396.8a6.32,6.32,0,1,1-6.3-6.26A6.34,6.34,0,0,1,680.36,396.8Z"/><path class="cls-9" d="M667.69,687.48a6.35,6.35,0,1,1,6.28,6.26A6.39,6.39,0,0,1,667.69,687.48Z"/><path class="cls-9" d="M641.45,512.9a6.35,6.35,0,1,1-6.16-6.38A6.4,6.4,0,0,1,641.45,512.9Z"/><path class="cls-9" d="M777.4,126.29A6.24,6.24,0,0,1,773,132l-.39.11a6,6,0,0,1-2,.17,6.27,6.27,0,0,1-5.7-5.18l2-4.18.35-.74.74-1.59a6.22,6.22,0,0,1,3.53-.82,6.29,6.29,0,0,1,2.38.61,4.61,4.61,0,0,1,.75.44A6.22,6.22,0,0,1,777.4,126.29Z"/><path class="cls-9" d="M713,294.28a6.26,6.26,0,1,1-6.28,6.18A6.23,6.23,0,0,1,713,294.28Z"/><path class="cls-9" d="M693.13,364.7a6.16,6.16,0,1,1,6.27-6.13A6.07,6.07,0,0,1,693.13,364.7Z"/><path class="cls-9" d="M661.06,454.8a6.22,6.22,0,1,1-6.27-6.15A6.12,6.12,0,0,1,661.06,454.8Z"/><path class="cls-9" d="M758.08,203.74a6.17,6.17,0,1,1-6.18-6.21A6.06,6.06,0,0,1,758.08,203.74Z"/><path class="cls-9" d="M693.29,731.91a6.2,6.2,0,1,1,6.16-6.25A6.11,6.11,0,0,1,693.29,731.91Z"/><path class="cls-9" d="M674,673.78a6.08,6.08,0,1,1,6.17-5.93A6,6,0,0,1,674,673.78Z"/><path class="cls-9" d="M796.42,68.08a4.58,4.58,0,0,1,0,.53c0,.23,0,.45-.09.67a6,6,0,0,1-6,4.8l-.55,0,1.62-3.45.35-.75,2.93-6.22A6.1,6.1,0,0,1,796.42,68.08Z"/><path class="cls-9" d="M654.87,623.29a6.12,6.12,0,1,1-6.16,6A6,6,0,0,1,654.87,623.29Z"/><path class="cls-9" d="M635.21,596.68a6.13,6.13,0,1,1,6-6.1A6,6,0,0,1,635.21,596.68Z"/><path class="cls-9" d="M674.15,422.63a6.09,6.09,0,1,1,6-6.13A6,6,0,0,1,674.15,422.63Z"/><path class="cls-9" d="M752,228.87a6,6,0,1,1,6-6.12A6,6,0,0,1,752,228.87Z"/><path class="cls-9" d="M660.92,474.6a6.08,6.08,0,1,1-5.95-6.11A6,6,0,0,1,660.92,474.6Z"/><path class="cls-9" d="M629.05,551.31a6.07,6.07,0,1,1,5.66,6.43A6,6,0,0,1,629.05,551.31Z"/><path class="cls-9" d="M635.09,538.69a6.14,6.14,0,1,1,6.17-6.19A6,6,0,0,1,635.09,538.69Z"/><path class="cls-9" d="M777.22,145.71a6.12,6.12,0,1,1-5.94-6.14A6,6,0,0,1,777.22,145.71Z"/><path class="cls-9" d="M713.1,325.75a6.06,6.06,0,1,1,5.95-6.12A6,6,0,0,1,713.1,325.75Z"/><path class="cls-9" d="M732.21,255.54a6.15,6.15,0,1,1-6.2,6.17A6,6,0,0,1,732.21,255.54Z"/><path class="cls-9" d="M790.42,81.65a6,6,0,1,1-6.16,6A6,6,0,0,1,790.42,81.65Z"/><path class="cls-9" d="M693.14,383.7a6,6,0,1,1,6.12-6A6,6,0,0,1,693.14,383.7Z"/><path class="cls-9" d="M641.12,570.75a6,6,0,1,1-6.19-5.9A6,6,0,0,1,641.12,570.75Z"/><path class="cls-9" d="M771.17,170.85a6,6,0,1,1,6-6.15A6,6,0,0,1,771.17,170.85Z"/><path class="cls-9" d="M693.19,700.53a6,6,0,1,1-6,6.14A6,6,0,0,1,693.19,700.53Z"/><path class="cls-9" d="M726.14,280.74a6,6,0,1,1,6,6.11A6,6,0,0,1,726.14,280.74Z"/><path class="cls-9" d="M655,615.68a6,6,0,1,1,5.87-6A6.07,6.07,0,0,1,655,615.68Z"/><path class="cls-9" d="M680,648.48a6,6,0,1,1-6-5.87A6.07,6.07,0,0,1,680,648.48Z"/><path class="cls-9" d="M719,745.52a6,6,0,1,1-5.8-6.08A6.07,6.07,0,0,1,719,745.52Z"/><path class="cls-9" d="M790.52,100.86a6,6,0,1,1-6.2,5.68A6.08,6.08,0,0,1,790.52,100.86Z"/><path class="cls-9" d="M712.93,344.79a6,6,0,1,1,6-5.83A6.09,6.09,0,0,1,712.93,344.79Z"/><path class="cls-9" d="M673.82,441.66A6,6,0,1,1,680,436,6.07,6.07,0,0,1,673.82,441.66Z"/><path class="cls-9" d="M655,499.69a6,6,0,1,1,5.9-6A6,6,0,0,1,655,499.69Z"/><path class="cls-9" d="M751.89,236.05a5.94,5.94,0,1,1-5.93,6A6.07,6.07,0,0,1,751.89,236.05Z"/><path class="cls-9" d="M816,29.74v.06a6.09,6.09,0,0,1-6.06,5.79,5.19,5.19,0,0,1-1.88-.4l1.77-3.78.35-.74L813,24.61a6,6,0,0,1,3,4.48C816,29.31,816,29.52,816,29.74Z"/><path class="cls-9" d="M660.76,512.9a5.92,5.92,0,1,1-5.94-5.95A6,6,0,0,1,660.76,512.9Z"/><path class="cls-9" d="M777.06,184a6,6,0,1,1-6-5.9A6.08,6.08,0,0,1,777.06,184Z"/><path class="cls-9" d="M699.14,396.71A5.91,5.91,0,1,1,693,391,6,6,0,0,1,699.14,396.71Z"/><path class="cls-9" d="M738,300.67a5.87,5.87,0,1,1-5.6-6A6,6,0,0,1,738,300.67Z"/><path class="cls-9" d="M693.1,693.26a5.86,5.86,0,1,1,6-5.59A6,6,0,0,1,693.1,693.26Z"/><path class="cls-9" d="M790.3,131.83a5.85,5.85,0,1,1,5.87-5.71A6,6,0,0,1,790.3,131.83Z"/><path class="cls-9" d="M810.16,54.62a5.8,5.8,0,1,1,5.69-5.84A5.88,5.88,0,0,1,810.16,54.62Z"/><path class="cls-9" d="M679.84,454.87a5.81,5.81,0,1,1-5.71-5.81A5.88,5.88,0,0,1,679.84,454.87Z"/><path class="cls-9" d="M654.92,526.8a5.75,5.75,0,1,1-5.84,5.68A5.78,5.78,0,0,1,654.92,526.8Z"/><path class="cls-9" d="M718.64,725.58a5.67,5.67,0,1,1-5.86-5.52A5.58,5.58,0,0,1,718.64,725.58Z"/><path class="cls-9" d="M693.19,410.94a5.61,5.61,0,1,1-5.57,5.5A5.49,5.49,0,0,1,693.19,410.94Z"/><path class="cls-9" d="M737.78,319.66a5.62,5.62,0,1,1-5.51-5.57A5.47,5.47,0,0,1,737.78,319.66Z"/><path class="cls-9" d="M698.81,667.6a5.58,5.58,0,1,1-5.62-5.45A5.45,5.45,0,0,1,698.81,667.6Z"/><path class="cls-9" d="M757.64,261.73A5.73,5.73,0,1,1,752,256,5.7,5.7,0,0,1,757.64,261.73Z"/><path class="cls-9" d="M771,198a5.72,5.72,0,1,1-5.59,5.84A5.69,5.69,0,0,1,771,198Z"/><path class="cls-9" d="M654.91,557.28a5.58,5.58,0,1,1,5.52-5.51A5.44,5.44,0,0,1,654.91,557.28Z"/><path class="cls-9" d="M751.82,286.37a5.53,5.53,0,1,1,5.63-5.38A5.43,5.43,0,0,1,751.82,286.37Z"/><path class="cls-9" d="M815.58,87.55a5.54,5.54,0,1,1-5.59-5.4A5.45,5.45,0,0,1,815.58,87.55Z"/><path class="cls-9" d="M674,635.06a5.66,5.66,0,1,1,5.71-5.68A5.58,5.58,0,0,1,674,635.06Z"/><path class="cls-9" d="M712.86,372.16a5.53,5.53,0,1,1-5.43,5.58A5.45,5.45,0,0,1,712.86,372.16Z"/><path class="cls-9" d="M654.76,596.25a5.7,5.7,0,1,1,5.79-5.61A5.66,5.66,0,0,1,654.76,596.25Z"/><path class="cls-9" d="M795.84,164.79a5.54,5.54,0,1,1-5.52-5.49A5.43,5.43,0,0,1,795.84,164.79Z"/><path class="cls-9" d="M654.86,576.37a5.52,5.52,0,1,1,5.51-5.53A5.43,5.43,0,0,1,654.86,576.37Z"/><path class="cls-9" d="M673.91,488.19a5.51,5.51,0,1,1-5.39,5.64A5.44,5.44,0,0,1,673.91,488.19Z"/><path class="cls-9" d="M718.7,358.58a5.73,5.73,0,1,1-5.68-5.76A5.71,5.71,0,0,1,718.7,358.58Z"/><path class="cls-9" d="M815.67,67.84a5.63,5.63,0,1,1-5.83-5.48A5.51,5.51,0,0,1,815.67,67.84Z"/><path class="cls-9" d="M796,145.72a5.67,5.67,0,1,1-5.69-5.69A5.59,5.59,0,0,1,796,145.72Z"/><path class="cls-9" d="M674.14,469a5.6,5.6,0,1,1-5.72,5.36A5.5,5.5,0,0,1,674.14,469Z"/><path class="cls-9" d="M776.67,222.74a5.57,5.57,0,1,1-5.59-5.46A5.44,5.44,0,0,1,776.67,222.74Z"/><path class="cls-9" d="M698.7,648.54a5.47,5.47,0,1,1-5.35-5.44A5.52,5.52,0,0,1,698.7,648.54Z"/><path class="cls-9" d="M679.52,609.79a5.49,5.49,0,1,1-5.47-5.56A5.45,5.45,0,0,1,679.52,609.79Z"/><path class="cls-9" d="M790.38,178.53a5.45,5.45,0,1,1-5.54,5.23A5.51,5.51,0,0,1,790.38,178.53Z"/><path class="cls-9" d="M698.72,435.66a5.49,5.49,0,1,1-5.59-5.44A5.47,5.47,0,0,1,698.72,435.66Z"/><path class="cls-9" d="M732,333.36a5.48,5.48,0,1,1-5.35,5.68A5.49,5.49,0,0,1,732,333.36Z"/><path class="cls-9" d="M834.73,9.87a5.5,5.5,0,1,1-5.67-5.38A5.47,5.47,0,0,1,834.73,9.87Z"/><path class="cls-9" d="M713,712.06a5.5,5.5,0,1,1,5.5-5.51A5.45,5.45,0,0,1,713,712.06Z"/><path class="cls-9" d="M810,101.38a5.45,5.45,0,1,1-5.44,5.33A5.48,5.48,0,0,1,810,101.38Z"/><path class="cls-9" d="M776.57,241.9a5.47,5.47,0,1,1-5.41-5.36A5.5,5.5,0,0,1,776.57,241.9Z"/><path class="cls-9" d="M829.36,24.24a5.43,5.43,0,1,1-5.56,5.24A5.56,5.56,0,0,1,829.36,24.24Z"/><path class="cls-9" d="M674,518.29a5.44,5.44,0,1,1,5.52-5.3A5.55,5.55,0,0,1,674,518.29Z"/><path class="cls-9" d="M757.35,300.57a5.44,5.44,0,1,1-5.34-5.46A5.55,5.55,0,0,1,757.35,300.57Z"/><path class="cls-9" d="M712.88,391.44a5.41,5.41,0,1,1-5.33,5.5A5.53,5.53,0,0,1,712.88,391.44Z"/><path class="cls-9" d="M732.18,750.84a5.43,5.43,0,1,1,5.43-5.37A5.54,5.54,0,0,1,732.18,750.84Z"/><path class="cls-9" d="M732.28,363.85a5.31,5.31,0,1,1,5.21-5.28A5.45,5.45,0,0,1,732.28,363.85Z"/><path class="cls-9" d="M809.83,131.38a5.4,5.4,0,1,1,5.62-5.19A5.57,5.57,0,0,1,809.83,131.38Z"/><path class="cls-9" d="M829.26,54.18a5.36,5.36,0,1,1,5.35-5.45A5.5,5.5,0,0,1,829.26,54.18Z"/><path class="cls-9" d="M674.12,537.89a5.34,5.34,0,1,1,5.27-5.28A5.5,5.5,0,0,1,674.12,537.89Z"/><path class="cls-9" d="M790.29,209a5.36,5.36,0,1,1,5.38-5.41A5.52,5.52,0,0,1,790.29,209Z"/><path class="cls-9" d="M673.93,585.25a5.31,5.31,0,1,1-5.21,5.27A5.45,5.45,0,0,1,673.93,585.25Z"/><path class="cls-9" d="M693.32,460.22a5.37,5.37,0,1,1,5.3-5.53A5.52,5.52,0,0,1,693.32,460.22Z"/><path class="cls-9" d="M712.94,692.77a5.36,5.36,0,1,1,5.4-5.4A5.52,5.52,0,0,1,712.94,692.77Z"/><path class="cls-9" d="M776.44,261.66a5.34,5.34,0,1,1-5.23-5.3A5.47,5.47,0,0,1,776.44,261.66Z"/><path class="cls-9" d="M810.11,150.92a5.24,5.24,0,1,1,5.18-5.31A5.31,5.31,0,0,1,810.11,150.92Z"/><path class="cls-9" d="M698.48,629.46a5.25,5.25,0,1,1-5.12-5.29A5.29,5.29,0,0,1,698.48,629.46Z"/><path class="cls-9" d="M732.37,720.47a5.24,5.24,0,1,1-5.44,5A5.31,5.31,0,0,1,732.37,720.47Z"/><path class="cls-9" d="M829.17,73.19A5.22,5.22,0,1,1,834.46,68,5.24,5.24,0,0,1,829.17,73.19Z"/><path class="cls-9" d="M757.16,319.76a5.25,5.25,0,1,1-5.18-5.31A5.3,5.3,0,0,1,757.16,319.76Z"/><path class="cls-9" d="M732.06,382.73a5,5,0,1,1,5.16-4.86A4.92,4.92,0,0,1,732.06,382.73Z"/><path class="cls-9" d="M718.17,416.6a5.2,5.2,0,1,1-5.14-5.24A5.18,5.18,0,0,1,718.17,416.6Z"/><path class="cls-9" d="M674.14,575.93a5.08,5.08,0,1,1,5-5A5,5,0,0,1,674.14,575.93Z"/><path class="cls-9" d="M810,159.78a5.06,5.06,0,1,1-5,5A5,5,0,0,1,810,159.78Z"/><path class="cls-9" d="M790.28,227.94a5.11,5.11,0,1,1,5.14-5.15A5,5,0,0,1,790.28,227.94Z"/><path class="cls-9" d="M770.88,285.93a5.09,5.09,0,1,1,5.31-4.73A5,5,0,0,1,770.88,285.93Z"/><path class="cls-9" d="M679.2,551.66a5.17,5.17,0,1,1-5.28-5.11A5.1,5.1,0,0,1,679.2,551.66Z"/><path class="cls-9" d="M834.28,87.61a5,5,0,1,1-5-5A4.92,4.92,0,0,1,834.28,87.61Z"/><path class="cls-9" d="M713.06,672.8a5.09,5.09,0,1,1,5-5A5,5,0,0,1,713.06,672.8Z"/><path class="cls-9" d="M693.2,479.73a5.18,5.18,0,1,1,5.22-5.15A5.17,5.17,0,0,1,693.2,479.73Z"/><path class="cls-9" d="M698.26,493.58a5,5,0,1,1-5.08-4.9A4.91,4.91,0,0,1,698.26,493.58Z"/><path class="cls-9" d="M698.24,609.8a5,5,0,1,1-4.91-5.09A4.89,4.89,0,0,1,698.24,609.8Z"/><path class="cls-9" d="M848.55,15a4.92,4.92,0,0,1-5.15-4.84,5,5,0,1,1,10.06-.23A4.91,4.91,0,0,1,848.55,15Z"/><path class="cls-9" d="M756.92,338.83a5,5,0,1,1-5-5A4.89,4.89,0,0,1,756.92,338.83Z"/><path class="cls-9" d="M853.32,49a4.89,4.89,0,1,1-4.76-5A5,5,0,0,1,853.32,49Z"/><path class="cls-9" d="M810.17,179a5,5,0,1,1-5.1,4.91A4.93,4.93,0,0,1,810.17,179Z"/><path class="cls-9" d="M834.13,126.1a4.9,4.9,0,1,1-4.78-5A5,5,0,0,1,834.13,126.1Z"/><path class="cls-9" d="M756.8,745.47a4.89,4.89,0,1,1-4.83-4.94A5,5,0,0,1,756.8,745.47Z"/><path class="cls-9" d="M712.9,440.67a5,5,0,1,1,5.06-4.89A4.91,4.91,0,0,1,712.9,440.67Z"/><path class="cls-9" d="M795.19,261.59a4.89,4.89,0,1,1-5-4.79A5,5,0,0,1,795.19,261.59Z"/><path class="cls-9" d="M698.19,512.81a5,5,0,1,1-5.07-4.9A4.93,4.93,0,0,1,698.19,512.81Z"/><path class="cls-9" d="M698.13,532.67a4.9,4.9,0,1,1-4.78-5A5,5,0,0,1,698.13,532.67Z"/><path class="cls-9" d="M771,305.47a4.94,4.94,0,1,1,5-4.72A4.93,4.93,0,0,1,771,305.47Z"/><path class="cls-9" d="M737.15,706.65a5,5,0,1,1-4.89-5.06A4.89,4.89,0,0,1,737.15,706.65Z"/><path class="cls-9" d="M717.92,648.47a4.95,4.95,0,1,1-4.89-4.85A4.94,4.94,0,0,1,717.92,648.47Z"/><path class="cls-9" d="M732.16,401.76a4.92,4.92,0,1,1,4.93-4.77A4.94,4.94,0,0,1,732.16,401.76Z"/><path class="cls-9" d="M713,459.74a4.89,4.89,0,1,1,4.84-4.88A5,5,0,0,1,713,459.74Z"/><path class="cls-9" d="M834.19,106.72a5,5,0,1,1-5.13-4.84A4.92,4.92,0,0,1,834.19,106.72Z"/><path class="cls-9" d="M853.39,29.63a5,5,0,1,1-5.07-4.9A4.93,4.93,0,0,1,853.39,29.63Z"/><path class="cls-9" d="M785.32,241.93a5,5,0,1,1,4.93,5A4.9,4.9,0,0,1,785.32,241.93Z"/><path class="cls-9" d="M693.36,585.69a4.86,4.86,0,1,1-5,4.73A5,5,0,0,1,693.36,585.69Z"/><path class="cls-9" d="M732.08,682.54a4.87,4.87,0,1,1-4.79,5A5,5,0,0,1,732.08,682.54Z"/><path class="cls-9" d="M756.78,358.6a4.87,4.87,0,1,1-4.81-4.92A5,5,0,0,1,756.78,358.6Z"/><path class="cls-9" d="M810.16,208.55a4.87,4.87,0,1,1,4.76-5A5,5,0,0,1,810.16,208.55Z"/><path class="cls-9" d="M713,624.6a4.8,4.8,0,1,1-4.81,4.67A5,5,0,0,1,713,624.6Z"/><path class="cls-9" d="M693.36,556.5a4.8,4.8,0,1,1,4.68-4.79A5,5,0,0,1,693.36,556.5Z"/><path class="cls-9" d="M775.93,319.73a4.83,4.83,0,1,1-4.65-4.86A5,5,0,0,1,775.93,319.73Z"/><path class="cls-9" d="M736.94,416.65a4.77,4.77,0,1,1-4.59-4.86A4.92,4.92,0,0,1,736.94,416.65Z"/><path class="cls-9" d="M853.2,68a4.77,4.77,0,1,1-4.67-4.79A4.91,4.91,0,0,1,853.2,68Z"/><path class="cls-9" d="M834,145.72a4.8,4.8,0,1,1-4.62-4.82A5,5,0,0,1,834,145.72Z"/><path class="cls-9" d="M713.07,469.79a4.76,4.76,0,1,1-4.86,4.59A4.92,4.92,0,0,1,713.07,469.79Z"/><path class="cls-9" d="M688.54,570.78a4.7,4.7,0,1,1,4.62,4.76A4.74,4.74,0,0,1,688.54,570.78Z"/><path class="cls-9" d="M736.83,667.84a4.66,4.66,0,1,1-4.6-4.79A4.68,4.68,0,0,1,736.83,667.84Z"/><path class="cls-9" d="M752,721.06a4.66,4.66,0,1,1-4.71,4.67A4.68,4.68,0,0,1,752,721.06Z"/><path class="cls-9" d="M790.24,276.15a4.69,4.69,0,1,1-4.64,4.75A4.73,4.73,0,0,1,790.24,276.15Z"/><path class="cls-9" d="M810.11,227.52a4.69,4.69,0,1,1,4.63-4.76A4.74,4.74,0,0,1,810.11,227.52Z"/><path class="cls-9" d="M713.2,508.38a4.48,4.48,0,1,1-4.71,4.25A4.39,4.39,0,0,1,713.2,508.38Z"/><path class="cls-9" d="M713.08,489.11a4.59,4.59,0,1,1-4.71,4.56A4.55,4.55,0,0,1,713.08,489.11Z"/><path class="cls-9" d="M848.3,83.15a4.53,4.53,0,1,1-4.4,4.58A4.43,4.43,0,0,1,848.3,83.15Z"/><path class="cls-9" d="M775.64,338.73a4.54,4.54,0,1,1-4.58-4.41A4.43,4.43,0,0,1,775.64,338.73Z"/><path class="cls-9" d="M713,614.21a4.51,4.51,0,1,1,4.46-4.49A4.4,4.4,0,0,1,713,614.21Z"/><path class="cls-9" d="M736.7,435.59a4.54,4.54,0,1,1-4.57-4.42A4.44,4.44,0,0,1,736.7,435.59Z"/><path class="cls-9" d="M756.51,377.8a4.6,4.6,0,1,1-4.55-4.7A4.55,4.55,0,0,1,756.51,377.8Z"/><path class="cls-9" d="M833.72,183.93a4.49,4.49,0,1,1-4.54-4.42A4.37,4.37,0,0,1,833.72,183.93Z"/><path class="cls-9" d="M829.16,160.21a4.62,4.62,0,1,1-4.55,4.77A4.61,4.61,0,0,1,829.16,160.21Z"/><path class="cls-9" d="M810.06,246.46a4.48,4.48,0,1,1,4.46-4.49A4.36,4.36,0,0,1,810.06,246.46Z"/><path class="cls-9" d="M872.73,9.87a4.56,4.56,0,0,1-9.11.21,4.56,4.56,0,0,1,9.11-.21Z"/><path class="cls-9" d="M751.92,711a4.46,4.46,0,1,1,4.46-4.47A4.35,4.35,0,0,1,751.92,711Z"/><path class="cls-9" d="M717.34,590.46a4.37,4.37,0,1,1-4.4-4.27A4.4,4.4,0,0,1,717.34,590.46Z"/><path class="cls-9" d="M790.3,296.11a4.43,4.43,0,1,1-4.44,4.5A4.35,4.35,0,0,1,790.3,296.11Z"/><path class="cls-9" d="M848.56,111.26a4.43,4.43,0,1,1,4.31-4.63A4.36,4.36,0,0,1,848.56,111.26Z"/><path class="cls-9" d="M751.87,392.41a4.43,4.43,0,1,1-4.4,4.55A4.34,4.34,0,0,1,751.87,392.41Z"/><path class="cls-9" d="M814.41,261.81a4.37,4.37,0,1,1-4.17-4.48A4.42,4.42,0,0,1,814.41,261.81Z"/><path class="cls-9" d="M848.52,121.61a4.37,4.37,0,1,1-4.47,4.21A4.39,4.39,0,0,1,848.52,121.61Z"/><path class="cls-9" d="M717.37,532.77a4.4,4.4,0,1,1-4-4.6A4.36,4.36,0,0,1,717.37,532.77Z"/><path class="cls-9" d="M872.61,29.8a4.44,4.44,0,1,1-4.38-4.56A4.35,4.35,0,0,1,872.61,29.8Z"/><path class="cls-9" d="M751.81,683.05a4.36,4.36,0,1,1-4.27,4.39A4.42,4.42,0,0,1,751.81,683.05Z"/><path class="cls-9" d="M732.17,653a4.43,4.43,0,1,1,4.44-4.5A4.34,4.34,0,0,1,732.17,653Z"/><path class="cls-9" d="M736.58,455a4.41,4.41,0,1,1-4.17-4.5A4.37,4.37,0,0,1,736.58,455Z"/><path class="cls-9" d="M771.14,749.77a4.36,4.36,0,1,1,4.34-4.32A4.43,4.43,0,0,1,771.14,749.77Z"/><path class="cls-9" d="M872.53,48.87a4.36,4.36,0,1,1-4.31-4.4A4.43,4.43,0,0,1,872.53,48.87Z"/><path class="cls-9" d="M775.48,358.59a4.38,4.38,0,1,1-4.26-4.41A4.38,4.38,0,0,1,775.48,358.59Z"/><path class="cls-9" d="M833.61,203.73a4.38,4.38,0,1,1-4.25-4.41A4.38,4.38,0,0,1,833.61,203.73Z"/><path class="cls-9" d="M736.5,629.44a4.34,4.34,0,1,1-4.36-4.36A4.45,4.45,0,0,1,736.5,629.44Z"/><path class="cls-9" d="M708.64,551.49a4.34,4.34,0,1,1,4.19,4.54A4.46,4.46,0,0,1,708.64,551.49Z"/><path class="cls-9" d="M752.12,412.23a4.31,4.31,0,1,1-4.53,4.17A4.48,4.48,0,0,1,752.12,412.23Z"/><path class="cls-9" d="M852.74,145.73a4.31,4.31,0,1,1-4.33-4.35A4.47,4.47,0,0,1,852.74,145.73Z"/><path class="cls-9" d="M790.42,324a4.31,4.31,0,1,1,4.2-4.5A4.45,4.45,0,0,1,790.42,324Z"/><path class="cls-9" d="M736.5,474.58a4.34,4.34,0,1,1-4.36-4.36A4.43,4.43,0,0,1,736.5,474.58Z"/><path class="cls-9" d="M775.33,725.83a4.23,4.23,0,1,1-4-4.34A4.36,4.36,0,0,1,775.33,725.83Z"/><path class="cls-9" d="M732.28,489.48a4.22,4.22,0,1,1-4.34,4A4.37,4.37,0,0,1,732.28,489.48Z"/><path class="cls-9" d="M712.87,566.57a4.29,4.29,0,1,1-4.19,4.25A4.44,4.44,0,0,1,712.87,566.57Z"/><path class="cls-9" d="M756.14,667.81a4.23,4.23,0,1,1-4.06-4.32A4.37,4.37,0,0,1,756.14,667.81Z"/><path class="cls-9" d="M833.47,222.9a4.23,4.23,0,1,1-4.1-4.28A4.37,4.37,0,0,1,833.47,222.9Z"/><path class="cls-9" d="M868.27,72.22A4.24,4.24,0,1,1,872.42,68,4.42,4.42,0,0,1,868.27,72.22Z"/><path class="cls-9" d="M805.86,280.63a4.19,4.19,0,1,1,4,4.38A4.29,4.29,0,0,1,805.86,280.63Z"/><path class="cls-9" d="M771.18,381.89a4.2,4.2,0,1,1,4.13-4.27A4.32,4.32,0,0,1,771.18,381.89Z"/><path class="cls-9" d="M848.36,169a4.17,4.17,0,1,1,4.25-4.1A4.26,4.26,0,0,1,848.36,169Z"/><path class="cls-9" d="M732.23,613.84a4.14,4.14,0,1,1,4.08-4.27A4.2,4.2,0,0,1,732.23,613.84Z"/><path class="cls-9" d="M756.06,435.64a4.15,4.15,0,1,1-4.27-4.08A4.2,4.2,0,0,1,756.06,435.64Z"/><path class="cls-9" d="M790.3,334.78a4.06,4.06,0,1,1-4.07,3.93A4,4,0,0,1,790.3,334.78Z"/><path class="cls-9" d="M872.24,87.64a4.07,4.07,0,1,1-4-4A4,4,0,0,1,872.24,87.64Z"/><path class="cls-9" d="M736.21,512.74a4,4,0,1,1-4-3.92A4,4,0,0,1,736.21,512.74Z"/><path class="cls-9" d="M887.43,14a4.07,4.07,0,1,1,4-4.27A4,4,0,0,1,887.43,14Z"/><path class="cls-9" d="M891.3,29.72a3.93,3.93,0,1,1-3.88-4A3.81,3.81,0,0,1,891.3,29.72Z"/><path class="cls-9" d="M872,125.94a3.87,3.87,0,1,1-3.78-3.82A3.8,3.8,0,0,1,872,125.94Z"/><path class="cls-9" d="M771.33,702.6a4,4,0,1,1-4.19,3.74A3.87,3.87,0,0,1,771.33,702.6Z"/><path class="cls-9" d="M790.08,362.4a3.87,3.87,0,1,1,4.08-3.51A3.82,3.82,0,0,1,790.08,362.4Z"/><path class="cls-9" d="M852.38,184.2a4,4,0,1,1-3.73-4.16A3.85,3.85,0,0,1,852.38,184.2Z"/><path class="cls-9" d="M732.15,528.64a3.91,3.91,0,1,1-3.9,4A3.81,3.81,0,0,1,732.15,528.64Z"/><path class="cls-9" d="M755.88,648.66A4,4,0,1,1,752,644.6,3.85,3.85,0,0,1,755.88,648.66Z"/><path class="cls-9" d="M833.2,242.09a4,4,0,1,1-3.86-4.06A3.85,3.85,0,0,1,833.2,242.09Z"/><path class="cls-9" d="M751.9,450.94a3.91,3.91,0,1,1-3.9,4A3.82,3.82,0,0,1,751.9,450.94Z"/><path class="cls-9" d="M771.18,392.88a4,4,0,1,1-4,3.89A3.85,3.85,0,0,1,771.18,392.88Z"/><path class="cls-9" d="M736.07,590.47a3.9,3.9,0,1,1-4.05-3.81A3.81,3.81,0,0,1,736.07,590.47Z"/><path class="cls-9" d="M809.92,296.63a3.91,3.91,0,1,1-3.79,4.1A3.82,3.82,0,0,1,809.92,296.63Z"/><path class="cls-9" d="M868.28,110.79a4,4,0,1,1,3.86-4.07A3.86,3.86,0,0,1,868.28,110.79Z"/><path class="cls-9" d="M833.09,261.7a3.86,3.86,0,1,1-3.77-3.86A3.85,3.85,0,0,1,833.09,261.7Z"/><path class="cls-9" d="M775,687.53a3.85,3.85,0,1,1-3.65-4A3.83,3.83,0,0,1,775,687.53Z"/><path class="cls-9" d="M751.87,470.72a3.83,3.83,0,1,1-3.79,3.8A3.85,3.85,0,0,1,751.87,470.72Z"/><path class="cls-9" d="M887.45,52.67a3.85,3.85,0,1,1,3.77-3.86A3.87,3.87,0,0,1,887.45,52.67Z"/><path class="cls-9" d="M755.75,629.46a3.84,3.84,0,1,1-3.72-3.88A3.84,3.84,0,0,1,755.75,629.46Z"/><path class="cls-9" d="M852.27,203.69a3.84,3.84,0,1,1-3.77-3.83A3.84,3.84,0,0,1,852.27,203.69Z"/><path class="cls-9" d="M736,551.65a3.86,3.86,0,1,1-3.85-3.8A3.83,3.83,0,0,1,736,551.65Z"/><path class="cls-9" d="M794.13,745.47a3.84,3.84,0,1,1-7.67-.25,3.84,3.84,0,0,1,7.67.25Z"/><path class="cls-9" d="M774.94,416.57a3.84,3.84,0,1,1-3.74-3.85A3.83,3.83,0,0,1,774.94,416.57Z"/><path class="cls-9" d="M906.65,13.69a3.87,3.87,0,0,1-3.81-3.56,3.72,3.72,0,1,1,7.44-.18A3.84,3.84,0,0,1,906.65,13.69Z"/><path class="cls-9" d="M755.61,512.78a3.7,3.7,0,1,1-3.7-3.62A3.82,3.82,0,0,1,755.61,512.78Z"/><path class="cls-9" d="M755.61,609.66a3.7,3.7,0,1,1-3.67-3.64A3.81,3.81,0,0,1,755.61,609.66Z"/><path class="cls-9" d="M810.06,323.49a3.8,3.8,0,1,1,3.79-3.82A3.87,3.87,0,0,1,810.06,323.49Z"/><path class="cls-9" d="M736,570.83a3.82,3.82,0,1,1-3.83-3.78A3.87,3.87,0,0,1,736,570.83Z"/><path class="cls-9" d="M887.48,91.37a3.69,3.69,0,1,1-.09-7.38,3.69,3.69,0,0,1,.09,7.38Z"/><path class="cls-9" d="M771.31,664a3.71,3.71,0,1,1-3.91,3.44A3.84,3.84,0,0,1,771.31,664Z"/><path class="cls-9" d="M755.7,493.62a3.88,3.88,0,0,1-3.77,3.86,3.8,3.8,0,0,1-3.79-3.83,3.67,3.67,0,0,1,3.62-3.71A3.8,3.8,0,0,1,755.7,493.62Z"/><path class="cls-9" d="M771.18,439.45a3.75,3.75,0,1,1,3.68-3.69A3.89,3.89,0,0,1,771.18,439.45Z"/><path class="cls-9" d="M848.3,226.58a3.75,3.75,0,1,1,3.88-3.48A3.87,3.87,0,0,1,848.3,226.58Z"/><path class="cls-9" d="M790.21,381.46a3.92,3.92,0,0,1-3.69-3.93,3.83,3.83,0,0,1,4-3.58,3.68,3.68,0,0,1,3.52,3.77A3.8,3.8,0,0,1,790.21,381.46Z"/><path class="cls-9" d="M790.24,722a3.71,3.71,0,1,1-3.66,3.71A3.84,3.84,0,0,1,790.24,722Z"/><path class="cls-9" d="M868.3,141.9a3.89,3.89,0,0,1,3.66,4,3.82,3.82,0,0,1-4.05,3.56,3.69,3.69,0,0,1-3.51-3.82A3.81,3.81,0,0,1,868.3,141.9Z"/><path class="cls-9" d="M887.24,71.76a3.91,3.91,0,0,1-3.67-4,3.83,3.83,0,0,1,4.06-3.56A3.68,3.68,0,0,1,891.14,68,3.81,3.81,0,0,1,887.24,71.76Z"/><path class="cls-9" d="M833,281a3.74,3.74,0,1,1-3.48-3.85A3.86,3.86,0,0,1,833,281Z"/><path class="cls-9" d="M810.15,335.15a3.69,3.69,0,1,1-3.81,3.51A3.81,3.81,0,0,1,810.15,335.15Z"/><path class="cls-9" d="M793.94,396.91a3.64,3.64,0,1,1-3.57-3.7A3.73,3.73,0,0,1,793.94,396.91Z"/><path class="cls-9" d="M771.09,451.29a3.53,3.53,0,0,1,3.55,3.8,3.38,3.38,0,0,1-3.64,3.29,3.55,3.55,0,0,1,.09-7.09Z"/><path class="cls-9" d="M852,242a3.66,3.66,0,0,1-3.7,3.56,3.6,3.6,0,0,1-3.48-3.76,3.46,3.46,0,0,1,3.55-3.41A3.59,3.59,0,0,1,852,242Z"/><path class="cls-9" d="M871.84,164.77a3.67,3.67,0,1,1-3.73-3.6A3.78,3.78,0,0,1,871.84,164.77Z"/><path class="cls-9" d="M910.08,29.72a3.51,3.51,0,0,1-7,.21,3.44,3.44,0,0,1,3.44-3.77A3.53,3.53,0,0,1,910.08,29.72Z"/><path class="cls-9" d="M890.87,106.78c-.15,2.1-1.23,3.42-3.38,3.49A3.21,3.21,0,0,1,883.9,107a3.33,3.33,0,0,1,3.47-3.65C889.53,103.44,890.65,104.66,890.87,106.78Z"/><path class="cls-9" d="M868,187.47c-2.14-.3-3.28-1.51-3.26-3.65a3.31,3.31,0,0,1,3.82-3.27,3.19,3.19,0,0,1,3.08,3.72C871.45,186.43,870.05,187.41,868,187.47Z"/><path class="cls-9" d="M755.41,532.65c-.24,2.13-1.4,3.32-3.54,3.36a3.33,3.33,0,0,1-3.42-3.71,3.2,3.2,0,0,1,3.64-3.19C754.24,529.2,755.29,530.55,755.41,532.65Z"/><path class="cls-9" d="M786.8,706.58c.17-2.11,1.26-3.42,3.41-3.46a3.21,3.21,0,0,1,3.56,3.28,3.34,3.34,0,0,1-3.52,3.62C788.1,709.93,787,708.7,786.8,706.58Z"/><path class="cls-9" d="M771.08,652.05c-2.12-.2-3.35-1.31-3.44-3.45a3.33,3.33,0,0,1,3.63-3.5,3.21,3.21,0,0,1,3.29,3.55C774.51,650.8,773.19,651.89,771.08,652.05Z"/><path class="cls-9" d="M829,304a3.34,3.34,0,0,1-3.27-3.53,3.38,3.38,0,0,1,3.72-3.46,3.31,3.31,0,0,1,3.27,3.65A3.45,3.45,0,0,1,829,304Z"/><path class="cls-9" d="M810.18,355.07c2.14.27,3.37,1.44,3.29,3.6a3.43,3.43,0,0,1-6.85-.26C806.69,356.23,808,355.19,810.18,355.07Z"/><path class="cls-9" d="M790.41,419.94a3.39,3.39,0,1,1-.08-6.78,3.15,3.15,0,0,1,3.36,3.21A3.28,3.28,0,0,1,790.41,419.94Z"/><path class="cls-9" d="M771.18,471.14c2.12.24,3.37,1.36,3.28,3.54a3.07,3.07,0,0,1-3.56,3.21,3,3,0,0,1-3.15-3.34C767.75,472.36,769,471.31,771.18,471.14Z"/><path class="cls-9" d="M752.18,567.51c1.91.35,3.07,1.44,3,3.49a3.21,3.21,0,0,1-3.66,3.14,3.07,3.07,0,0,1-2.93-3.57C748.79,568.53,750.13,567.59,752.18,567.51Z"/><path class="cls-9" d="M868.17,200.27c2.22.3,3.46,1.43,3.34,3.59a3.34,3.34,0,0,1-6.68-.23C864.85,201.43,866.22,200.48,868.17,200.27Z"/><path class="cls-9" d="M790.75,432.41a3.14,3.14,0,0,1,2.84,3.35A3.19,3.19,0,0,1,790,439a3.12,3.12,0,0,1-3-3.47A3.33,3.33,0,0,1,790.75,432.41Z"/><path class="cls-9" d="M774.46,629.52c-.27,2-1.31,3.14-3.37,3.19a3.21,3.21,0,0,1-3.29-3.53,3.08,3.08,0,0,1,3.46-3.06C773.31,626.21,774.3,627.5,774.46,629.52Z"/><path class="cls-9" d="M790.64,684.1a3.11,3.11,0,0,1,3,3.23,3.19,3.19,0,0,1-3.43,3.37,3.1,3.1,0,0,1-3.19-3.35C787,685.52,788.45,684.1,790.64,684.1Z"/><path class="cls-9" d="M752.23,555.06c-2.35,0-3.82-1.56-3.67-3.54a3.11,3.11,0,0,1,3.4-3.16,3.2,3.2,0,0,1,3.3,3.52A3.09,3.09,0,0,1,752.23,555.06Z"/><path class="cls-9" d="M810,374.37a3.22,3.22,0,0,1,3.4,3.37,3.1,3.1,0,0,1-3.24,3.26,3.22,3.22,0,0,1-3.41-3.36A3.26,3.26,0,0,1,810,374.37Z"/><path class="cls-9" d="M909.92,48.39c0,2.37-1.46,3.88-3.44,3.78a3.1,3.1,0,0,1-3.27-3.29,3.2,3.2,0,0,1,3.43-3.4A3.11,3.11,0,0,1,909.92,48.39Z"/><path class="cls-9" d="M810.15,742.07c1.94.29,3.13,1.32,3.19,3.36a3.21,3.21,0,0,1-3.52,3.26,3.08,3.08,0,0,1-3.06-3.43C806.85,743.23,808.15,742.25,810.15,742.07Z"/><path class="cls-9" d="M848.35,265.08a3.39,3.39,0,1,1,.3-6.78,3.15,3.15,0,0,1,3.17,3.4A3.26,3.26,0,0,1,848.35,265.08Z"/><path class="cls-9" d="M884,125.76a3.25,3.25,0,0,1,3.7-3.09,3.12,3.12,0,0,1,3,3.53,3.35,3.35,0,1,1-6.68-.44Z"/><path class="cls-9" d="M832.57,319.22c.06,2.35-1.41,3.87-3.38,3.8a3.11,3.11,0,0,1-3.29-3.24,3.2,3.2,0,0,1,3.38-3.42A3.1,3.1,0,0,1,832.57,319.22Z"/><path class="cls-9" d="M751.82,594a3.39,3.39,0,1,1,.32-6.78,3.14,3.14,0,0,1,3.16,3.41A3.27,3.27,0,0,1,751.82,594Z"/><path class="cls-9" d="M774.4,494.15A3.16,3.16,0,0,1,771,497a3.21,3.21,0,0,1-3.22-3.56,3.14,3.14,0,0,1,3.49-3A3.34,3.34,0,0,1,774.4,494.15Z"/><path class="cls-9" d="M871.37,242.18a3.11,3.11,0,0,1-3.18,2.95,3,3,0,0,1-3.19-3.06,3.28,3.28,0,0,1,3.29-3.27A3.4,3.4,0,0,1,871.37,242.18Z"/><path class="cls-9" d="M929.55,10.05c-.38,2-1.48,3.24-3.5,3.08a2.94,2.94,0,0,1-2.91-3.27,3,3,0,0,1,3.41-3C928.41,7,929.35,8.25,929.55,10.05Z"/><path class="cls-9" d="M851.65,300.58c-.29,1.85-1.31,3.09-3.2,3.1a3,3,0,0,1-3.19-3.06,3.2,3.2,0,0,1,3.28-3.25A3.28,3.28,0,0,1,851.65,300.58Z"/><path class="cls-9" d="M774.37,512.75c-.22,2-1.23,3.27-3.27,3.28a3,3,0,0,1-3.18-3,3,3,0,0,1,3.19-3.31C773,509.64,774,510.89,774.37,512.75Z"/><path class="cls-9" d="M813.28,725.65c-.23,1.93-1.26,3.24-3.28,3.23a3.17,3.17,0,1,1,.08-6.33C812,722.55,813,723.79,813.28,725.65Z"/><path class="cls-9" d="M793.54,454.84c-.27,1.92-1.32,3.22-3.33,3.17a3.16,3.16,0,1,1,.18-6.32C792.26,451.72,793.27,453,793.54,454.84Z"/><path class="cls-9" d="M793.56,667.73c-.29,1.94-1.35,3.23-3.39,3.16a3.18,3.18,0,1,1,.26-6.36C792.31,664.58,793.31,665.85,793.56,667.73Z"/><path class="cls-9" d="M810.12,400.12c-2-.23-3.29-1.25-3.29-3.27a3.21,3.21,0,0,1,6.42-.15C813.34,398.72,812.07,399.79,810.12,400.12Z"/><path class="cls-9" d="M829.16,342.14c-2-.33-3.25-1.4-3.15-3.44a3,3,0,0,1,3.44-3.07,3,3,0,0,1,3,3.22C832.44,340.89,831.14,341.9,829.16,342.14Z"/><path class="cls-9" d="M887.68,149c-2.18-.19-3.5-1.18-3.57-3.22a3.26,3.26,0,0,1,6.52-.24C890.74,147.63,889.4,148.61,887.68,149Z"/><path class="cls-9" d="M906.45,71.28c-1.94-.32-3.2-1.37-3.13-3.4a3.24,3.24,0,0,1,6.48.19C909.75,70.1,908.44,71.09,906.45,71.28Z"/><path class="cls-9" d="M851.76,280.82c-.24,2-1.26,3.27-3.32,3.27a3.25,3.25,0,1,1,0-6.5C850.47,277.57,851.5,278.85,851.76,280.82Z"/><path class="cls-9" d="M871.5,222.69c-.17,2-1.16,3.32-3.2,3.4a3.26,3.26,0,1,1-.25-6.51C870.1,219.49,871.17,220.75,871.5,222.69Z"/><path class="cls-9" d="M906.64,90.88a3.26,3.26,0,0,1-3.25-3,3.19,3.19,0,0,1,3.21-3.33,3,3,0,0,1,3.11,3.14C909.74,89.54,908.5,90.57,906.64,90.88Z"/><path class="cls-9" d="M890.65,164.83c-.28,1.95-1.32,3.25-3.34,3.2a3.2,3.2,0,0,1,0-6.4C889.32,161.59,890.37,162.87,890.65,164.83Z"/><path class="cls-9" d="M774.37,609.62c-.23,2-1.25,3.27-3.29,3.27a3,3,0,0,1-3.16-3.07,3,3,0,0,1,3.21-3.3C773,606.5,774,607.76,774.37,609.62Z"/><path class="cls-9" d="M813.06,706.53a2.87,2.87,0,0,1-2.89,3,3,3,0,1,1-.12-5.94C811.86,703.58,812.86,704.7,813.06,706.53Z"/><path class="cls-9" d="M887.41,180.84c1.89.28,3.1,1.33,3.05,3.21a3.1,3.1,0,0,1-6.19-.14C884.31,182,885.57,181,887.41,180.84Z"/><path class="cls-9" d="M774.26,532.51c-.2,1.83-1.2,3.09-3.09,3.13a3.09,3.09,0,1,1-.13-6.18C772.92,529.42,774,530.63,774.26,532.51Z"/><path class="cls-9" d="M929.32,29.65c-.15,1.8-1.12,3-2.93,3a2.77,2.77,0,0,1-3.06-3.08,2.75,2.75,0,0,1,3-2.86C928.16,26.73,929.14,27.85,929.32,29.65Z"/><path class="cls-9" d="M909.58,106.81c-.18,1.85-1.17,3-3,3a3,3,0,1,1,0-5.93A2.87,2.87,0,0,1,909.58,106.81Z"/><path class="cls-9" d="M790.3,651.61c-1.85-.19-3-1.22-3-3.13a2.78,2.78,0,0,1,3-2.93,2.82,2.82,0,0,1,3.06,3.09C793.29,650.41,792.14,651.4,790.3,651.61Z"/><path class="cls-9" d="M813.17,416.5c-.25,1.93-1.3,3.15-3.2,3.1a3.06,3.06,0,0,1,0-6.12C811.9,413.46,812.91,414.69,813.17,416.5Z"/><path class="cls-9" d="M832.39,358.5c-.2,1.83-1.2,3.09-3.09,3.13a3.09,3.09,0,1,1-.13-6.18C831.06,355.41,832.11,356.62,832.39,358.5Z"/><path class="cls-9" d="M768.05,590.61c.14-1.78,1.09-3,2.86-3.06a3,3,0,1,1,.12,6C769.25,593.54,768.26,592.39,768.05,590.61Z"/><path class="cls-9" d="M774,570.85c-.14,1.83-1.09,2.88-3,2.84a2.84,2.84,0,0,1,0-5.68C772.9,568,773.85,569,774,570.85Z"/><path class="cls-9" d="M793.16,629.29c-.09,1.84-1,2.93-2.88,2.93a2.54,2.54,0,0,1-2.8-2.7,2.58,2.58,0,0,1,2.84-2.93C792.07,626.58,793,627.58,793.16,629.29Z"/><path class="cls-9" d="M909.38,145.65c-.13,1.7-1,2.77-2.73,2.8a2.54,2.54,0,0,1-2.86-2.88,2.52,2.52,0,0,1,2.82-2.66C908.35,142.92,909.22,144,909.38,145.65Z"/><path class="cls-9" d="M923.45,48.63c.31-1.85,1.37-2.78,3.21-2.58a2.53,2.53,0,0,1,2.44,3A2.57,2.57,0,0,1,926,51.6C924.2,51.43,923.5,50.26,923.45,48.63Z"/><path class="cls-9" d="M848.34,316.76c1.81.09,2.94,1,3,2.83a2.9,2.9,0,0,1-5.8.19C845.47,318,846.5,316.94,848.34,316.76Z"/><path class="cls-9" d="M810,690.26c-1.83-.14-2.88-1.09-2.82-3a2.55,2.55,0,0,1,2.8-2.7,2.58,2.58,0,0,1,2.84,2.93C812.82,689.27,811.77,690.13,810,690.26Z"/><path class="cls-9" d="M790.5,471.62a2.76,2.76,0,0,1,2.7,3.16,2.91,2.91,0,0,1-5.8-.46C787.53,472.47,788.72,471.64,790.5,471.62Z"/><path class="cls-9" d="M774,551.62c-.09,1.8-1,2.93-2.84,3a2.9,2.9,0,0,1-.19-5.79C772.85,548.75,773.86,549.77,774,551.62Z"/><path class="cls-9" d="M906.5,123.1c1.82.11,2.91,1,2.9,2.88a2.58,2.58,0,0,1-2.91,2.84,2.56,2.56,0,0,1-2.77-2.71C903.65,124.27,904.66,123.28,906.5,123.1Z"/><path class="cls-9" d="M829.27,374.79c1.82.16,2.86,1.11,2.84,2.94a2.88,2.88,0,0,1-5.75-.08C826.38,375.81,827.47,374.91,829.27,374.79Z"/><path class="cls-9" d="M810.13,438.58c-2-.17-3-1.15-2.93-3a2.85,2.85,0,0,1,5.69.09A2.68,2.68,0,0,1,810.13,438.58Z"/><path class="cls-9" d="M871,280.83c-.15,1.7-1,2.76-2.75,2.78a2.55,2.55,0,0,1-2.85-2.9,2.52,2.52,0,0,1,2.83-2.65C870,278.09,870.84,279.13,871,280.83Z"/><path class="cls-9" d="M887.21,220c1.74.07,2.84.88,2.93,2.62a2.55,2.55,0,0,1-2.79,3,2.51,2.51,0,0,1-2.76-2.71A2.64,2.64,0,0,1,887.21,220Z"/><path class="cls-9" d="M793.15,493.35c-.1,2-1,3.14-2.86,3.14a2.52,2.52,0,0,1-2.79-2.67,2.57,2.57,0,0,1,2.81-2.92A2.67,2.67,0,0,1,793.15,493.35Z"/><path class="cls-9" d="M871.14,261.62c-.1,1.77-1,2.92-2.82,3a2.71,2.71,0,0,1-3.08-3,2.67,2.67,0,0,1,2.91-2.88C870,258.75,871,259.81,871.14,261.62Z"/><path class="cls-9" d="M890.3,203.64c-.11,1.8-1,2.91-2.87,2.94a2.9,2.9,0,1,1-.12-5.79C889.15,200.75,890.13,201.8,890.3,203.64Z"/><path class="cls-9" d="M790.3,515.64c-1.68-.19-2.75-1-2.74-2.79a2.74,2.74,0,0,1,5.48,0C793.05,514.58,792,515.44,790.3,515.64Z"/><path class="cls-9" d="M829.3,394.06c1.66.22,2.72,1.11,2.67,2.84a2.74,2.74,0,0,1-5.47-.11C826.52,395.06,827.61,394.22,829.3,394.06Z"/><path class="cls-9" d="M812.82,454.87c-.26,1.65-1.14,2.74-2.86,2.67a2.7,2.7,0,0,1,0-5.39C811.72,452.13,812.58,453.21,812.82,454.87Z"/><path class="cls-9" d="M829.21,748.21c-1.66-.18-2.71-1-2.73-2.75a2.51,2.51,0,0,1,2.64-2.79A2.54,2.54,0,0,1,832,745.5C832,747.22,830.89,748.06,829.21,748.21Z"/><path class="cls-9" d="M906.69,162.06c1.62.28,2.67,1.17,2.59,2.88a2.72,2.72,0,0,1-5.44-.22C903.9,163,905,162.2,906.69,162.06Z"/><path class="cls-9" d="M810.17,664.94c1.62.33,2.71,1.23,2.57,2.95a2.71,2.71,0,0,1-5.41-.23C807.39,666,808.49,665.11,810.17,664.94Z"/><path class="cls-9" d="M929.1,67.85c-.14,1.71-1,2.8-2.69,2.86a2.73,2.73,0,1,1-.21-5.46C927.94,65.17,928.84,66.21,929.1,67.85Z"/><path class="cls-9" d="M793.11,609.53c-.21,1.85-1.07,2.91-2.81,2.91a2.74,2.74,0,1,1,0-5.47A2.71,2.71,0,0,1,793.11,609.53Z"/><path class="cls-9" d="M851.23,339a2.64,2.64,0,0,1-2.85,2.59,2.5,2.5,0,0,1-2.7-2.73,2.53,2.53,0,0,1,2.94-2.76C850.33,336.18,851.14,337.28,851.23,339Z"/><path class="cls-9" d="M890.09,242c-.22,1.62-1.09,2.72-2.79,2.69a2.47,2.47,0,0,1-2.59-2.59,2.51,2.51,0,0,1,2.73-2.72C889,239.35,889.83,240.41,890.09,242Z"/><path class="cls-9" d="M870.87,300.48c-.18,1.55-1,2.63-2.57,2.68a2.63,2.63,0,1,1-.12-5.26C869.76,297.9,870.61,299,870.87,300.48Z"/><path class="cls-9" d="M851.13,358.55c-.23,1.54-1.07,2.61-2.64,2.62a2.63,2.63,0,1,1,0-5.26C850.08,356,850.91,357,851.13,358.55Z"/><path class="cls-9" d="M790.36,587.89c1.52.26,2.56,1.11,2.55,2.66a2.61,2.61,0,1,1-5.22-.13A2.63,2.63,0,0,1,790.36,587.89Z"/><path class="cls-9" d="M906.52,186.65c-1.53-.26-2.57-1.1-2.57-2.65a2.61,2.61,0,1,1,5.22.1C909.12,185.64,908,186.46,906.52,186.65Z"/><path class="cls-9" d="M945.61,7.31c1.52.31,2.57,1.17,2.5,2.72a2.62,2.62,0,1,1-5.23-.25A2.67,2.67,0,0,1,945.61,7.31Z"/><path class="cls-9" d="M929,87.62c-.21,1.62-1.07,2.73-2.78,2.71a2.48,2.48,0,0,1-2.6-2.57A2.5,2.5,0,0,1,926.36,85C927.92,85,928.76,86.08,929,87.62Z"/><path class="cls-9" d="M831.93,725.66c-.18,1.54-1,2.63-2.57,2.68a2.63,2.63,0,1,1-.12-5.26C830.82,723.08,831.67,724.12,831.93,725.66Z"/><path class="cls-9" d="M831.91,416.38c-.13,1.58-.95,2.66-2.47,2.76a2.61,2.61,0,1,1-.27-5.21C830.75,413.88,831.57,414.93,831.91,416.38Z"/><path class="cls-9" d="M793,532.44c-.17,1.66-1,2.77-2.75,2.78a2.48,2.48,0,0,1-2.67-2.54,2.51,2.51,0,0,1,2.69-2.8C791.91,529.85,792.74,530.9,793,532.44Z"/><path class="cls-9" d="M812.65,474.54c-.22,1.55-1.08,2.59-2.66,2.55a2.55,2.55,0,0,1,0-5.09C811.54,472,812.41,473,812.65,474.54Z"/><path class="cls-9" d="M887.34,264.16c-1.54-.18-2.45-1-2.42-2.49a2.45,2.45,0,1,1,4.9.17A2.37,2.37,0,0,1,887.34,264.16Z"/><path class="cls-9" d="M829.19,704c1.64.26,2.67,1.14,2.6,2.71a2.56,2.56,0,0,1-5.11-.07A2.59,2.59,0,0,1,829.19,704Z"/><path class="cls-9" d="M948,29.69a2.47,2.47,0,0,1-2.69,2.47A2.32,2.32,0,0,1,943,29.65a2.35,2.35,0,0,1,2.65-2.46A2.45,2.45,0,0,1,948,29.69Z"/><path class="cls-9" d="M790.31,554.3c-1.55-.21-2.6-1.08-2.56-2.65a2.55,2.55,0,0,1,5.1,0C792.89,553.2,791.87,554.07,790.31,554.3Z"/><path class="cls-9" d="M792.78,570.88a2.37,2.37,0,0,1-2.49,2.42,2.29,2.29,0,0,1-2.43-2.66,2.26,2.26,0,0,1,2.59-2.23A2.36,2.36,0,0,1,792.78,570.88Z"/><path class="cls-9" d="M926.35,123.51a2.34,2.34,0,0,1,2.4,2.45,2.45,2.45,0,1,1-4.9-.1A2.37,2.37,0,0,1,926.35,123.51Z"/><path class="cls-9" d="M810.07,651.16c-1.54-.2-2.6-1-2.58-2.63a2.56,2.56,0,0,1,5.11-.08C812.65,650,811.64,650.91,810.07,651.16Z"/><path class="cls-9" d="M929,106.88c-.28,1.55-1.15,2.58-2.72,2.53a2.58,2.58,0,1,1,.14-5.16A2.62,2.62,0,0,1,929,106.88Z"/><path class="cls-9" d="M945.49,51.25a2.28,2.28,0,0,1-2.39-2.46,2.4,2.4,0,0,1,4.79.07A2.27,2.27,0,0,1,945.49,51.25Z"/><path class="cls-9" d="M812.47,629.35a2.28,2.28,0,0,1-2.4,2.44A2.39,2.39,0,1,1,810,627,2.28,2.28,0,0,1,812.47,629.35Z"/><path class="cls-9" d="M829.31,438.12c-1.61-.14-2.49-.95-2.47-2.46a2.4,2.4,0,0,1,4.79.07A2.26,2.26,0,0,1,829.31,438.12Z"/><path class="cls-9" d="M868.24,317.27a2.29,2.29,0,0,1,2.33,2.53,2.4,2.4,0,0,1-4.79-.22A2.27,2.27,0,0,1,868.24,317.27Z"/><path class="cls-9" d="M812.47,493.71a2.28,2.28,0,0,1-2.46,2.38,2.39,2.39,0,1,1,.07-4.78A2.27,2.27,0,0,1,812.47,493.71Z"/><path class="cls-9" d="M831.57,687.24c-.1,1.63-.87,2.49-2.42,2.45a2,2,0,0,1-2.2-2.23,2.09,2.09,0,0,1,2.37-2.34A2.15,2.15,0,0,1,831.57,687.24Z"/><path class="cls-9" d="M848.48,380.12a2.3,2.3,0,0,1-2.45-2.4,2.4,2.4,0,0,1,4.8-.06A2.29,2.29,0,0,1,848.48,380.12Z"/><path class="cls-9" d="M906.5,201.26a2.28,2.28,0,0,1,2.46,2.33,2.4,2.4,0,0,1-4.79.19A2.28,2.28,0,0,1,906.5,201.26Z"/><path class="cls-9" d="M945.5,65.66a2.15,2.15,0,0,1,2.29,2.42,2.06,2.06,0,0,1-2.26,2.18,2.09,2.09,0,0,1-2.32-2.39A2.13,2.13,0,0,1,945.5,65.66Z"/><path class="cls-9" d="M812.37,512.72c-.12,1.65-.92,2.48-2.46,2.42a2.06,2.06,0,0,1-2.16-2.29,2.1,2.1,0,0,1,2.42-2.29A2.14,2.14,0,0,1,812.37,512.72Z"/><path class="cls-9" d="M926.37,148a2.17,2.17,0,0,1-2.36-2.38,2.06,2.06,0,0,1,2.21-2.23,2.1,2.1,0,0,1,2.37,2.35A2.14,2.14,0,0,1,926.37,148Z"/><path class="cls-9" d="M831.48,454.79c-.11,1.37-.78,2.23-2.19,2.26a2.2,2.2,0,1,1-.11-4.4A2.11,2.11,0,0,1,831.48,454.79Z"/><path class="cls-9" d="M831.44,648.41c-.18,1.43-.88,2.32-2.28,2.29a2,2,0,0,1-2.07-2.08,2,2,0,0,1,2.22-2.2A2.19,2.19,0,0,1,831.44,648.41Z"/><path class="cls-9" d="M812.24,551.66c-.17,1.33-.87,2.21-2.27,2.18a2,2,0,0,1-2.07-2.08,2,2,0,0,1,2.21-2.2C811.37,549.58,812,550.42,812.24,551.66Z"/><path class="cls-9" d="M829.14,472.34c1.45.23,2.32,1,2.24,2.35a2,2,0,0,1-2.15,2,2,2,0,0,1-2.14-2.28A2.2,2.2,0,0,1,829.14,472.34Z"/><path class="cls-9" d="M966.9,10.11c-.26,1.32-1,2.15-2.4,2a2,2,0,0,1-2-2.42,2,2,0,0,1,2.21-1.9A2.14,2.14,0,0,1,966.9,10.11Z"/><path class="cls-9" d="M964.78,31.81a2.1,2.1,0,0,1-2.18-2,2,2,0,0,1,2.13-2.26,2,2,0,0,1,2.06,2.06A2.13,2.13,0,0,1,964.78,31.81Z"/><path class="cls-9" d="M810.07,588.36c1.24.2,2.09.85,2.11,2.11a2,2,0,0,1-2.19,2.22,2,2,0,0,1-2.09-2.05C807.86,589.24,808.74,588.54,810.07,588.36Z"/><path class="cls-9" d="M809.71,530.3c1.62.1,2.49.76,2.53,2.17a2,2,0,0,1-2.12,2.28,2,2,0,0,1-2.29-2.12A2.19,2.19,0,0,1,809.71,530.3Z"/><path class="cls-9" d="M848.62,747.7c-1.54-.09-2.4-.78-2.44-2.19a2.06,2.06,0,0,1,2.35-2.34,2,2,0,0,1,2.15,2.27A2.13,2.13,0,0,1,848.62,747.7Z"/><path class="cls-9" d="M947.74,87.74a2.11,2.11,0,0,1-2.3,2.13,2.2,2.2,0,0,1,.11-4.39C947,85.5,947.64,86.37,947.74,87.74Z"/><path class="cls-9" d="M945.35,104.62c1.47.21,2.35.92,2.29,2.31a2,2,0,0,1-2.11,2,2,2,0,0,1-2.18-2.24A2.22,2.22,0,0,1,945.35,104.62Z"/><path class="cls-9" d="M928.53,164.89c-.2,1.37-.94,2.21-2.35,2.12a2.18,2.18,0,0,1,.12-4.36A2.12,2.12,0,0,1,928.53,164.89Z"/><path class="cls-9" d="M831.48,667.72a2.11,2.11,0,0,1-2.26,2.19,2.2,2.2,0,1,1,0-4.4C830.66,665.51,831.35,666.36,831.48,667.72Z"/><path class="cls-9" d="M928.47,184c-.26,1.31-.94,2.13-2.19,2.12a2.1,2.1,0,1,1,.17-4.19A2.18,2.18,0,0,1,928.47,184Z"/><path class="cls-9" d="M908.82,222.71c-.06,1.38-.71,2.27-2.09,2.34a2,2,0,0,1-2.39-2.25,2,2,0,0,1,2.19-2.19A2.12,2.12,0,0,1,908.82,222.71Z"/><path class="cls-9" d="M908.75,242a2.12,2.12,0,0,1-2.08,2.1,2.14,2.14,0,1,1,.05-4.27A2.14,2.14,0,0,1,908.75,242Z"/><path class="cls-9" d="M889.65,280.94a2.11,2.11,0,0,1-2.3,2.14,2.25,2.25,0,1,1,.17-4.49A2.14,2.14,0,0,1,889.65,280.94Z"/><path class="cls-9" d="M887.22,298.33c1.44.18,2.32.88,2.29,2.28a2,2,0,0,1-2.08,2.06,2,2,0,0,1-2.21-2.21C885.23,299.19,886.13,298.59,887.22,298.33Z"/><path class="cls-9" d="M868.11,341.1a2.1,2.1,0,0,1-2.16-2.25,2,2,0,0,1,2.42-2.22,2,2,0,0,1,2,2.34A2.12,2.12,0,0,1,868.11,341.1Z"/><path class="cls-9" d="M868.19,360.71c-1.3-.19-2.19-.89-2.14-2.26a2.12,2.12,0,0,1,4.24.18C870.27,359.86,869.42,360.51,868.19,360.71Z"/><path class="cls-9" d="M848.47,399.1a2.1,2.1,0,0,1-2.26-2.16,2.23,2.23,0,1,1,4.45-.06A2.11,2.11,0,0,1,848.47,399.1Z"/><path class="cls-9" d="M812.29,609.72A2.11,2.11,0,0,1,810,611.9a2.2,2.2,0,1,1,0-4.39C811.47,607.51,812.15,608.36,812.29,609.72Z"/><path class="cls-9" d="M848.35,418.73a2.13,2.13,0,0,1-2.06-2.12,2.14,2.14,0,1,1,4.28.14A2.13,2.13,0,0,1,848.35,418.73Z"/><path class="cls-9" d="M848.38,723.52c1.33.16,2.22.86,2.19,2.25a2,2,0,0,1-2.07,2.08,2,2,0,0,1-2.21-2.2C846.3,724.39,847.14,723.73,848.38,723.52Z"/><path class="cls-9" d="M947.58,125.94a2.08,2.08,0,0,1-2.07,2.07,2,2,0,0,1-.16-4C946.61,123.85,947.33,124.68,947.58,125.94Z"/><path class="cls-9" d="M850.55,435.75c-.25,1.22-.94,2.06-2.19,2a2.07,2.07,0,0,1,.14-4.13A2.12,2.12,0,0,1,850.55,435.75Z"/><path class="cls-9" d="M831.35,493.65a2.11,2.11,0,0,1-2.05,2.11,2.06,2.06,0,1,1-.13-4.12C830.42,491.59,831.11,492.42,831.35,493.65Z"/><path class="cls-9" d="M889.44,319.6a2.07,2.07,0,0,1-2,2.12,2,2,0,0,1-.25-4.05C888.43,317.52,889.16,318.35,889.44,319.6Z"/><path class="cls-9" d="M868.1,379.66c-1.19-.21-1.93-.89-1.86-2a1.94,1.94,0,1,1,3.87.26A1.93,1.93,0,0,1,868.1,379.66Z"/><path class="cls-9" d="M906.51,263.8c-1.23-.24-2.07-.93-2-2.18a2.07,2.07,0,0,1,4.13.13A2.12,2.12,0,0,1,906.51,263.8Z"/><path class="cls-9" d="M829.19,627.29a2.11,2.11,0,0,1,2.11,2.05,2.07,2.07,0,0,1-4.13.13C827.12,628.22,828,627.53,829.19,627.29Z"/><path class="cls-9" d="M810.09,568.74c1.23.24,2.07.93,2,2.18a2.07,2.07,0,0,1-4.13-.13A2.11,2.11,0,0,1,810.09,568.74Z"/><path class="cls-9" d="M964.7,46.75c1.23.21,2.08.9,2,2.15a2,2,0,0,1-4.06,0A2.07,2.07,0,0,1,964.7,46.75Z"/><path class="cls-9" d="M848.54,708.68c-1.27-.16-2.13-.82-2.18-2a2.07,2.07,0,0,1,4.14-.13C850.55,707.75,849.68,708.41,848.54,708.68Z"/><path class="cls-9" d="M831.12,609.66a1.8,1.8,0,0,1-1.82,1.9,1.85,1.85,0,1,1-.13-3.7A1.8,1.8,0,0,1,831.12,609.66Z"/><path class="cls-9" d="M908.3,300.53a1.73,1.73,0,1,1-3.46-.13,1.55,1.55,0,0,1,1.79-1.58A1.59,1.59,0,0,1,908.3,300.53Z"/><path class="cls-9" d="M928,281a1.6,1.6,0,0,1-1.85,1.5,1.53,1.53,0,0,1-1.44-1.88,1.5,1.5,0,0,1,1.68-1.39A1.61,1.61,0,0,1,928,281Z"/><path class="cls-9" d="M908.45,280.72c-.08,1.19-.67,1.93-1.82,2a1.85,1.85,0,0,1-.14-3.7A1.8,1.8,0,0,1,908.45,280.72Z"/><path class="cls-9" d="M869.86,435.53c-.13,1.18-.67,1.84-1.74,1.8a1.51,1.51,0,0,1-1.58-1.75,1.5,1.5,0,0,1,1.55-1.52C869.2,434,869.64,434.71,869.86,435.53Z"/><path class="cls-9" d="M947.32,145.6a1.7,1.7,0,0,1-1.78,1.88,1.66,1.66,0,0,1-1.85-1.82,1.64,1.64,0,0,1,1.63-1.78A1.72,1.72,0,0,1,947.32,145.6Z"/><path class="cls-9" d="M831.13,512.75c-.11,1.22-.71,1.94-1.87,2a1.85,1.85,0,1,1,0-3.7A1.81,1.81,0,0,1,831.13,512.75Z"/><path class="cls-9" d="M848.42,514.48c-.92-.14-1.58-.65-1.58-1.58a1.6,1.6,0,1,1,3.19,0A1.62,1.62,0,0,1,848.42,514.48Z"/><path class="cls-9" d="M829.33,572.52c-1.05-.07-1.72-.58-1.73-1.65a1.51,1.51,0,0,1,1.69-1.65,1.49,1.49,0,0,1,1.58,1.48A1.6,1.6,0,0,1,829.33,572.52Z"/><path class="cls-9" d="M850.17,474.5a1.73,1.73,0,1,1-3.46,0,1.54,1.54,0,0,1,1.72-1.65A1.6,1.6,0,0,1,850.17,474.5Z"/><path class="cls-9" d="M928,261.77a1.59,1.59,0,0,1-1.81,1.55,1.53,1.53,0,0,1-1.49-1.85,1.5,1.5,0,0,1,1.65-1.42A1.6,1.6,0,0,1,928,261.77Z"/><path class="cls-9" d="M926.17,243.72a1.73,1.73,0,1,1,.39-3.44,1.55,1.55,0,0,1,1.46,1.89A1.61,1.61,0,0,1,926.17,243.72Z"/><path class="cls-9" d="M850.31,687.32a1.79,1.79,0,0,1-1.77,1.94,1.85,1.85,0,0,1-.22-3.7A1.79,1.79,0,0,1,850.31,687.32Z"/><path class="cls-9" d="M943.84,223c.16-1.06.66-1.72,1.59-1.73a1.59,1.59,0,1,1,0,3.18A1.72,1.72,0,0,1,943.84,223Z"/><path class="cls-9" d="M926.24,224.65a1.71,1.71,0,0,1-1.74-2,1.67,1.67,0,0,1,2-1.64,1.64,1.64,0,0,1,1.59,1.81A1.7,1.7,0,0,1,926.24,224.65Z"/><path class="cls-9" d="M945.63,202a1.59,1.59,0,0,1,1.5,1.85,1.52,1.52,0,0,1-1.88,1.43,1.49,1.49,0,0,1-1.39-1.67A1.6,1.6,0,0,1,945.63,202Z"/><path class="cls-9" d="M966.36,106.73c-.07,1-.58,1.72-1.65,1.73a1.51,1.51,0,0,1-1.66-1.68,1.49,1.49,0,0,1,1.49-1.58A1.6,1.6,0,0,1,966.36,106.73Z"/><path class="cls-9" d="M850.31,454.93a1.8,1.8,0,0,1-2,1.77,1.85,1.85,0,1,1,.22-3.7A1.79,1.79,0,0,1,850.31,454.93Z"/><path class="cls-9" d="M964.55,89.38A1.58,1.58,0,0,1,963,87.54a1.7,1.7,0,0,1,3.38.27C966.31,88.91,965.62,89.38,964.55,89.38Z"/><path class="cls-9" d="M926.17,201.8a1.82,1.82,0,0,1,2,1.77,1.86,1.86,0,0,1-3.71.23A1.8,1.8,0,0,1,926.17,201.8Z"/><path class="cls-9" d="M945.64,185.69c-1.08,0-1.77-.48-1.83-1.57a1.7,1.7,0,0,1,3.38-.27A1.58,1.58,0,0,1,945.64,185.69Z"/><path class="cls-9" d="M966.51,67.88a1.69,1.69,0,0,1-1.76,1.89,1.64,1.64,0,0,1-1.86-1.8,1.62,1.62,0,0,1,1.61-1.79A1.72,1.72,0,0,1,966.51,67.88Z"/><path class="cls-9" d="M848.44,650.22c-1-.11-1.69-.65-1.64-1.72a1.64,1.64,0,0,1,3.27,0C850.11,649.54,849.48,650.09,848.44,650.22Z"/><path class="cls-9" d="M831.07,532.45c-.13,1.32-.78,2-2,1.9a1.66,1.66,0,0,1-1.68-2,1.62,1.62,0,0,1,1.78-1.62A1.71,1.71,0,0,1,831.07,532.45Z"/><path class="cls-9" d="M829.35,592.29a1.59,1.59,0,0,1-1.83-1.56,1.57,1.57,0,0,1,1.74-1.89,1.54,1.54,0,0,1,1.7,1.67A1.6,1.6,0,0,1,829.35,592.29Z"/><path class="cls-9" d="M848.44,495.37c-1-.12-1.69-.66-1.64-1.72a1.64,1.64,0,0,1,3.27,0C850.11,494.69,849.48,495.23,848.44,495.37Z"/><path class="cls-9" d="M887.46,360.21c-1.05-.07-1.72-.59-1.73-1.65a1.52,1.52,0,0,1,1.69-1.65,1.49,1.49,0,0,1,1.58,1.48A1.6,1.6,0,0,1,887.46,360.21Z"/><path class="cls-9" d="M908.21,338.83a1.6,1.6,0,0,1-1.75,1.62,1.48,1.48,0,0,1-1.51-1.57,1.52,1.52,0,0,1,1.71-1.65A1.61,1.61,0,0,1,908.21,338.83Z"/><path class="cls-9" d="M868.47,727.38c-1.23,0-1.9-.56-1.93-1.62a1.64,1.64,0,0,1,3.27-.23A1.65,1.65,0,0,1,868.47,727.38Z"/><path class="cls-9" d="M870,397a1.62,1.62,0,0,1-1.75,1.65,1.76,1.76,0,1,1,.21-3.5A1.62,1.62,0,0,1,870,397Z"/><path class="cls-9" d="M947.23,164.89a1.73,1.73,0,1,1-3.45-.28,1.57,1.57,0,0,1,1.87-1.5A1.59,1.59,0,0,1,947.23,164.89Z"/><path class="cls-9" d="M868.2,418.25a1.57,1.57,0,0,1-1.72-1.66,1.7,1.7,0,0,1,3.39-.09A1.58,1.58,0,0,1,868.2,418.25Z"/><path class="cls-9" d="M887.31,340.66a1.7,1.7,0,0,1-1.74-2,1.66,1.66,0,0,1,2-1.64,1.62,1.62,0,0,1,1.58,1.81A1.7,1.7,0,0,1,887.31,340.66Z"/><path class="cls-9" d="M984.37,28A1.58,1.58,0,0,1,986,29.48a1.62,1.62,0,1,1-3.22.12A1.59,1.59,0,0,1,984.37,28Z"/><path class="cls-9" d="M831,551.56c-.06,1.21-.6,1.84-1.68,1.86a1.58,1.58,0,0,1-1.78-1.85,1.56,1.56,0,0,1,1.79-1.59A1.59,1.59,0,0,1,831,551.56Z"/><path class="cls-9" d="M906.74,321.38c-1.18-.06-1.82-.58-1.85-1.64a1.67,1.67,0,0,1,3.34-.1A1.58,1.58,0,0,1,906.74,321.38Z"/><path class="cls-9" d="M984.48,8.31c1,.16,1.67.72,1.59,1.78a1.52,1.52,0,0,1-1.82,1.51A1.5,1.5,0,0,1,982.79,10,1.61,1.61,0,0,1,984.48,8.31Z"/><path class="cls-9" d="M848.54,669.44a1.73,1.73,0,1,1-.09-3.45,1.54,1.54,0,0,1,1.7,1.68A1.59,1.59,0,0,1,848.54,669.44Z"/><path class="cls-9" d="M869.91,745.54a1.74,1.74,0,1,1-3.45-.38,1.56,1.56,0,0,1,1.9-1.46A1.6,1.6,0,0,1,869.91,745.54Z"/><path class="cls-9" d="M848.61,611.33c-1-.13-1.69-.64-1.74-1.56a1.57,1.57,0,0,1,3.13-.13C850.07,610.62,849.32,611,848.61,611.33Z"/><path class="cls-9" d="M927.76,319.74c-.17.83-.64,1.4-1.47,1.37a1.42,1.42,0,1,1,.16-2.84A1.45,1.45,0,0,1,927.76,319.74Z"/><path class="cls-9" d="M887.41,395.33c.9.2,1.54.73,1.43,1.68a1.41,1.41,0,0,1-1.51,1.31,1.43,1.43,0,0,1-1.44-1.64A1.55,1.55,0,0,1,887.41,395.33Z"/><path class="cls-9" d="M984.53,66.47c.89.25,1.53.78,1.36,1.74a1.39,1.39,0,0,1-1.56,1.24,1.42,1.42,0,0,1-1.36-1.7A1.53,1.53,0,0,1,984.53,66.47Z"/><path class="cls-9" d="M869.81,454.79c-.25,1-.75,1.68-1.7,1.62a1.49,1.49,0,0,1-1.5-1.63,1.51,1.51,0,0,1,1.63-1.5C869.19,453.32,869.61,454,869.81,454.79Z"/><path class="cls-9" d="M966.3,145.74c-.22.89-.72,1.56-1.67,1.5a1.56,1.56,0,1,1,.13-3.12A1.63,1.63,0,0,1,966.3,145.74Z"/><path class="cls-9" d="M964.72,185.52c-1-.26-1.64-.8-1.5-1.75a1.4,1.4,0,0,1,1.55-1.26,1.43,1.43,0,0,1,1.39,1.69A1.62,1.62,0,0,1,964.72,185.52Z"/><path class="cls-9" d="M966.32,164.65c-.13,1-.64,1.69-1.56,1.74a1.56,1.56,0,1,1-.13-3.12C965.61,163.19,966,163.94,966.32,164.65Z"/><path class="cls-9" d="M927.93,300.36c-.13,1-.64,1.69-1.56,1.74a1.57,1.57,0,0,1-.13-3.13C927.22,298.9,927.63,299.65,927.93,300.36Z"/><path class="cls-9" d="M848.49,534.16a1.63,1.63,0,0,1-1.62-1.54,1.56,1.56,0,1,1,3.12-.13C850.05,533.44,849.38,533.94,848.49,534.16Z"/><path class="cls-9" d="M984.38,47.22A1.63,1.63,0,0,1,986,48.76a1.57,1.57,0,0,1-3.13.13C982.81,47.94,983.48,47.44,984.38,47.22Z"/><path class="cls-9" d="M966.3,126c-.22.89-.72,1.56-1.67,1.5a1.56,1.56,0,1,1,.13-3.12A1.63,1.63,0,0,1,966.3,126Z"/><path class="cls-9" d="M850,629.35A1.62,1.62,0,0,1,848.5,631a1.56,1.56,0,1,1-.14-3.12C849.31,627.78,849.82,628.45,850,629.35Z"/><path class="cls-9" d="M868,685.79c1,.13,1.7.63,1.74,1.55a1.56,1.56,0,1,1-3.12.13C866.53,686.49,867.28,686.08,868,685.79Z"/><path class="cls-9" d="M868.12,708.17c-.9-.22-1.57-.72-1.51-1.67a1.57,1.57,0,0,1,3.13.13A1.63,1.63,0,0,1,868.12,708.17Z"/><path class="cls-9" d="M889,377.75c-.22.89-.72,1.55-1.67,1.49a1.55,1.55,0,1,1,.13-3.1A1.63,1.63,0,0,1,889,377.75Z"/><path class="cls-9" d="M947.12,241.8c-.13,1-.63,1.7-1.56,1.75a1.57,1.57,0,0,1-.13-3.13C946.41,240.35,946.82,241.1,947.12,241.8Z"/><path class="cls-9" d="M1004.91,10.09a1.23,1.23,0,0,1-1.53,1.14,1.16,1.16,0,0,1-1-1.37,1.28,1.28,0,1,1,2.55.23Z"/><path class="cls-9" d="M985.58,145.68c-.07.75-.47,1.18-1.22,1.13a1.06,1.06,0,0,1-1.06-1.27,1,1,0,0,1,1.08-1A1.07,1.07,0,0,1,985.58,145.68Z"/><path class="cls-9" d="M869.47,667.51c0,.92-.42,1.4-1.14,1.46a1.18,1.18,0,0,1-1.43-1.24,1.15,1.15,0,0,1,1.11-1.29A1.25,1.25,0,0,1,869.47,667.51Z"/><path class="cls-9" d="M984.62,127.17c-.9,0-1.33-.4-1.36-1.15a1.18,1.18,0,0,1,2.35-.08A1.11,1.11,0,0,1,984.62,127.17Z"/><path class="cls-9" d="M905.42,396.73a1.08,1.08,0,0,1,1.32-1,1.06,1.06,0,0,1,.94,1.37,1,1,0,0,1-1.17.89A1.08,1.08,0,0,1,905.42,396.73Z"/><path class="cls-9" d="M866.89,474.76c0-.83.32-1.36,1-1.47a1.2,1.2,0,0,1,1.52,1.14,1.17,1.17,0,0,1-1,1.38A1.24,1.24,0,0,1,866.89,474.76Z"/><path class="cls-9" d="M888.51,706.58a1.08,1.08,0,0,1-1.26,1.11,1.05,1.05,0,0,1-1-1.31,1,1,0,0,1,1.11-1A1.06,1.06,0,0,1,888.51,706.58Z"/><path class="cls-9" d="M868.17,630.57c-.89-.15-1.23-.65-1.12-1.36a1.05,1.05,0,0,1,1.38-.91,1,1,0,0,1,.88,1.17A1.1,1.1,0,0,1,868.17,630.57Z"/><path class="cls-9" d="M984.34,108.11a1.22,1.22,0,0,1-1.17-1.5,1.15,1.15,0,0,1,1.35-1,1.28,1.28,0,1,1-.18,2.55Z"/><path class="cls-9" d="M1003.63,88.84c-.89-.15-1.23-.65-1.13-1.36a1.06,1.06,0,0,1,1.39-.91,1,1,0,0,1,.87,1.17A1.09,1.09,0,0,1,1003.63,88.84Z"/><path class="cls-9" d="M984.34,89a1.22,1.22,0,0,1-1.17-1.5,1.15,1.15,0,0,1,1.35-1,1.28,1.28,0,1,1-.18,2.55Z"/><path class="cls-9" d="M1003.58,66.83a1.07,1.07,0,0,1,1.18,1.14,1,1,0,0,1-1.19,1.14,1,1,0,0,1-1.07-1A1.09,1.09,0,0,1,1003.58,66.83Z"/><path class="cls-9" d="M868.31,514c-.83,0-1.28-.4-1.27-1.16a1.14,1.14,0,0,1,2.27-.11A1.09,1.09,0,0,1,868.31,514Z"/><path class="cls-9" d="M869.41,648.38c0,.93-.44,1.37-1.18,1.39a1.12,1.12,0,0,1-1.27-1.36,1.09,1.09,0,0,1,1.29-1.07A1.14,1.14,0,0,1,869.41,648.38Z"/><path class="cls-9" d="M945.37,301.68a1.09,1.09,0,0,1-1-1.34,1.06,1.06,0,0,1,1.39-.91,1,1,0,0,1,.87,1.17A1.08,1.08,0,0,1,945.37,301.68Z"/><path class="cls-9" d="M866.89,493.82a1.28,1.28,0,1,1,2.55-.23,1.15,1.15,0,0,1-1,1.37A1.24,1.24,0,0,1,866.89,493.82Z"/><path class="cls-9" d="M888.51,687.36a1.06,1.06,0,0,1-1.14,1.18,1,1,0,0,1-1.14-1.19,1,1,0,0,1,1-1.07A1.08,1.08,0,0,1,888.51,687.36Z"/><path class="cls-9" d="M1003.49,47.67c.89.08,1.32.48,1.27,1.23a1,1,0,0,1-1.28,1.05,1,1,0,0,1-1-1.07A1.1,1.1,0,0,1,1003.49,47.67Z"/><path class="cls-9" d="M1003.55,31a1.23,1.23,0,0,1-1.19-1.47,1.15,1.15,0,0,1,1.32-1.09,1.28,1.28,0,1,1-.13,2.56Z"/><path class="cls-9" d="M944.21,281.05c0-.83.32-1.36,1-1.47a1.2,1.2,0,0,1,1.52,1.14,1.17,1.17,0,0,1-1,1.38A1.24,1.24,0,0,1,944.21,281.05Z"/><path class="cls-9" d="M907.7,377.8a1.09,1.09,0,0,1-1.32,1,1.06,1.06,0,0,1-.94-1.37,1,1,0,0,1,1.17-.89A1.07,1.07,0,0,1,907.7,377.8Z"/><path class="cls-9" d="M907.85,358.66a1.24,1.24,0,0,1-1.54,1.14,1.16,1.16,0,0,1-1-1.37,1.2,1.2,0,0,1,1.52-1.15A1.21,1.21,0,0,1,907.85,358.66Z"/><path class="cls-9" d="M848.48,572.1c-.87-.1-1.28-.51-1.27-1.26a1.13,1.13,0,0,1,1.43-1.19,1.11,1.11,0,0,1,1,1.35A1.14,1.14,0,0,1,848.48,572.1Z"/><path class="cls-9" d="M888.53,435.62c-.13.92-.59,1.29-1.32,1.2a1.06,1.06,0,0,1-1-1.35,1,1,0,0,1,1.15-.91A1.11,1.11,0,0,1,888.53,435.62Z"/><path class="cls-9" d="M945.43,260.4a1.28,1.28,0,1,1,.12,2.56,1.15,1.15,0,0,1-1.32-1.09A1.22,1.22,0,0,1,945.43,260.4Z"/><path class="cls-9" d="M887.33,415.26a1.28,1.28,0,0,1,.06,2.56,1.15,1.15,0,0,1-1.29-1.12A1.22,1.22,0,0,1,887.33,415.26Z"/><path class="cls-9" d="M964.56,243.13a1.08,1.08,0,0,1-1-1.34,1.05,1.05,0,0,1,1.38-.91,1,1,0,0,1,.88,1.17A1.09,1.09,0,0,1,964.56,243.13Z"/><path class="cls-9" d="M869.32,532.5a1.07,1.07,0,0,1-1.14,1.18,1.13,1.13,0,0,1-.15-2.26A1.09,1.09,0,0,1,869.32,532.5Z"/><path class="cls-9" d="M887.37,724.48a1.22,1.22,0,1,1-.15,2.44,1.09,1.09,0,0,1-1.07-1.29A1.13,1.13,0,0,1,887.37,724.48Z"/><path class="cls-9" d="M869.32,609.72c-.09.78-.51,1.18-1.26,1.11a1.05,1.05,0,0,1-1-1.3,1,1,0,0,1,1.11-.95A1.06,1.06,0,0,1,869.32,609.72Z"/><path class="cls-9" d="M966,203.78a1.23,1.23,0,0,1-1.51,1.16,1.15,1.15,0,0,1-1.05-1.34,1.28,1.28,0,1,1,2.56.18Z"/><path class="cls-9" d="M848.22,550.42c.86,0,1.38.35,1.48,1.06a1.2,1.2,0,0,1-1.19,1.49,1.15,1.15,0,0,1-1.35-1.05A1.24,1.24,0,0,1,848.22,550.42Z"/><path class="cls-9" d="M849.74,590.47c-.13,1-.65,1.44-1.5,1.35a1.15,1.15,0,0,1-1.08-1.32,1.19,1.19,0,0,1,1.46-1.21A1.2,1.2,0,0,1,849.74,590.47Z"/><path class="cls-9" d="M965.85,222.69c-.09.91-.49,1.33-1.25,1.27a1,1,0,0,1-1-1.28,1,1,0,0,1,1.09-1A1.1,1.1,0,0,1,965.85,222.69Z"/><path class="cls-9" d="M888.51,454.87a1.08,1.08,0,0,1-1.26,1.11,1.05,1.05,0,0,1-1-1.31,1,1,0,0,1,1.11-.95A1.06,1.06,0,0,1,888.51,454.87Z"/><path class="cls-9" d="M926.26,337.55a1.2,1.2,0,0,1,1.31,1.14,1.19,1.19,0,0,1-1.25,1.42A1.13,1.13,0,0,1,925,339,1.22,1.22,0,0,1,926.26,337.55Z"/><path class="cls-9" d="M888.65,745.29a1.28,1.28,0,1,1-2.55.23,1.16,1.16,0,0,1,1-1.37A1.24,1.24,0,0,1,888.65,745.29Z"/><path class="cls-9" d="M985.58,164.78a1.06,1.06,0,0,1-1.14,1.18,1,1,0,0,1-1.14-1.19,1,1,0,0,1,1-1.07A1.09,1.09,0,0,1,985.58,164.78Z"/><path class="cls-9" d="M1003.57,127c-.58-.2-1.05-.53-.92-1.16a1,1,0,0,1,2,.15A1.06,1.06,0,0,1,1003.57,127Z"/><path class="cls-9" d="M887.32,473.45a1.05,1.05,0,0,1,1.12,1.15,1,1,0,0,1-1,1,1,1,0,0,1-1.16-1.12C886.3,473.89,886.69,473.56,887.32,473.45Z"/><path class="cls-9" d="M869.19,570.74a1.06,1.06,0,0,1-1,1.1,1,1,0,0,1-.24-2C868.6,569.7,869,570.19,869.19,570.74Z"/><path class="cls-9" d="M906.48,473.53a1,1,0,0,1,1.07,1,1,1,0,0,1-2,.19C905.43,474.09,905.91,473.74,906.48,473.53Z"/><path class="cls-9" d="M907.64,435.59c-.25.74-.59,1.21-1.22,1.09a1,1,0,0,1-.84-1.19,1,1,0,0,1,1-.79C907.23,434.72,907.39,435.28,907.64,435.59Z"/><path class="cls-9" d="M887.42,630.48c-.71-.28-1.19-.62-1-1.24a1,1,0,0,1,1.21-.8,1,1,0,0,1,.77,1C888.31,630.09,887.79,630.27,887.42,630.48Z"/><path class="cls-9" d="M1003.63,107.85c-.58-.14-1-.44-1-1.08a1,1,0,0,1,.85-.92,1,1,0,0,1,1.12.91C1004.69,107.39,1004.22,107.7,1003.63,107.85Z"/><path class="cls-9" d="M926.48,378.74c-.74-.13-1.16-.45-1.17-1.07a1,1,0,0,1,2-.08C927.41,378.24,926.82,378.47,926.48,378.74Z"/><path class="cls-9" d="M1023.8,67.78a1,1,0,0,1-.8,1.13.93.93,0,0,1-1.13-.89.92.92,0,0,1,.77-1C1023.29,66.89,1023.58,67.41,1023.8,67.78Z"/><path class="cls-9" d="M906.5,707.58c-.57-.2-1-.54-.92-1.16a1,1,0,0,1,1.19-.83,1,1,0,0,1,.78,1A1.06,1.06,0,0,1,906.5,707.58Z"/><path class="cls-9" d="M906.58,415.53c.59.15,1,.48,1,1.11a1,1,0,0,1-2-.06A1,1,0,0,1,906.58,415.53Z"/><path class="cls-9" d="M1023.84,48.84c-.15.59-.48,1-1.11,1a1,1,0,0,1-.89-1.14,1,1,0,0,1,.94-.83C1023.41,47.83,1023.73,48.25,1023.84,48.84Z"/><path class="cls-9" d="M888.38,648.47a1.07,1.07,0,0,1-1,1.08,1,1,0,0,1-1-.77,1,1,0,0,1,.81-1.2C887.83,647.43,888.18,647.91,888.38,648.47Z"/><path class="cls-9" d="M887.31,494.72c-.58-.2-1-.54-.93-1.16a1,1,0,0,1,2,.15A1.06,1.06,0,0,1,887.31,494.72Z"/><path class="cls-9" d="M946.59,319.68a1,1,0,0,1-1,1.08,1,1,0,0,1-1.19-1.09,1,1,0,0,1,1-1.05A1,1,0,0,1,946.59,319.68Z"/><path class="cls-9" d="M1023.84,29.56a1.07,1.07,0,0,1-1,1.1.93.93,0,0,1-1-.74,1,1,0,0,1,.77-1.23C1023.25,28.52,1023.61,29,1023.84,29.56Z"/><path class="cls-9" d="M984.53,204.76c-.73-.25-1.21-.59-1.08-1.22a1,1,0,0,1,1.19-.83,1,1,0,0,1,.79,1C985.41,204.35,984.85,204.51,984.53,204.76Z"/><path class="cls-9" d="M1022.93,11.07c-.75-.16-1.16-.48-1.15-1.09a1,1,0,1,1,2.08.12A1.25,1.25,0,0,1,1022.93,11.07Z"/><path class="cls-9" d="M887.39,666.69c.58.16,1.05.48,1,1.11a1,1,0,0,1-1.15.89,1,1,0,0,1-.83-.94C886.37,667.12,886.79,666.8,887.39,666.69Z"/><path class="cls-9" d="M868.09,589.54a1,1,0,0,1,1.07,1,1,1,0,0,1-2,.18C867.05,590.09,867.52,589.75,868.09,589.54Z"/><path class="cls-9" d="M964.71,260.67c.59.15,1,.48,1,1.11a1,1,0,0,1-2,0C963.7,261.1,964.12,260.78,964.71,260.67Z"/><path class="cls-9" d="M869.19,551.59a1.07,1.07,0,0,1-1,1.1,1,1,0,0,1-.24-2C868.6,550.55,869,551,869.19,551.59Z"/><path class="cls-9" d="M887.42,513.93c-.71-.28-1.19-.63-1-1.25a1,1,0,0,1,1.21-.79,1,1,0,0,1,.77,1C888.31,513.53,887.79,513.71,887.42,513.93Z"/><path class="cls-9" d="M907.58,687.43c-.15.58-.48,1.05-1.11,1a1,1,0,0,1-.89-1.14,1,1,0,0,1,.94-.84A1.07,1.07,0,0,1,907.58,687.43Z"/><path class="cls-9" d="M888.42,532.38c-.13.73-.45,1.15-1.08,1.16a1,1,0,0,1-.08-2C887.92,531.45,888.14,532,888.42,532.38Z"/><path class="cls-9" d="M945.6,339.92c-.74-.26-1.21-.59-1.09-1.22a1,1,0,0,1,1.19-.83,1,1,0,0,1,.8,1C946.47,339.51,945.92,339.66,945.6,339.92Z"/><path class="cls-9" d="M906.44,453.78c.75.23,1.22.57,1.1,1.19a1,1,0,0,1-1.17.86,1,1,0,0,1-.81-1C905.57,454.19,906.13,454,906.44,453.78Z"/><path class="cls-9" d="M927.32,396.94c-.22.56-.56,1-1.18.88a1,1,0,0,1,.2-2A1.07,1.07,0,0,1,927.32,396.94Z"/><path class="cls-9" d="M984.22,183a1.12,1.12,0,0,1,1.21,1,1,1,0,0,1-2,.24C983.27,183.54,983.83,183.24,984.22,183Z"/><path class="cls-9" d="M906.58,724.69c.59.16,1,.49,1,1.11a1,1,0,0,1-2,0A1.06,1.06,0,0,1,906.58,724.69Z"/><path class="cls-9" d="M965.71,280.83c-.13.58-.44,1-1.08,1a1,1,0,0,1-.92-.85,1,1,0,0,1,.91-1.13C965.25,279.78,965.57,280.25,965.71,280.83Z"/><path class="cls-9" d="M887.37,610.73c-.58-.14-1-.44-1-1.08a1,1,0,0,1,.85-.93,1,1,0,0,1,1.12.92C888.43,610.27,888,610.58,887.37,610.73Z"/><path class="cls-9" d="M926.48,359.59c-.74-.13-1.16-.45-1.17-1.08a1,1,0,0,1,2-.07C927.41,359.09,926.82,359.32,926.48,359.59Z"/><path class="cls-9" d="M907.58,745.33a1.06,1.06,0,0,1-1,1.07,1,1,0,0,1-.19-2C907,744.29,907.37,744.76,907.58,745.33Z"/><path class="cls-9" d="M1004.65,145.6a1.07,1.07,0,0,1-1,1.07,1,1,0,0,1-.18-2C1004.09,144.55,1004.44,145,1004.65,145.6Z"/></g><rect class="cls-1" x="503.61" y="-20.45" width="797.64" height="795.89"/><polygon class="cls-10" points="695.64 497.92 824.51 767.25 347.81 767.25 347.81 767.33 -323.28 767.33 -323.28 -25.65 347.81 -25.65 347.81 -25.11 941.18 -25.11 695.64 497.92"/><path class="cls-11" d="M792.54,756.47l-14,14H743.29l31.64-31.51Zm-54.24-54-68.27,68h35.23L755.92,720ZM701.67,666,596.78,770.44H632l87.28-86.92ZM665.05,629.5,523.52,770.44h35.24L682.66,647ZM628.42,593,450.27,770.44H485.5L646,610.57Zm-36.63-36.48L377,770.44h35.23L609.41,574.09Zm-36.62-36.47L303.76,770.44H339L572.78,537.62ZM518.54,483.6l-288,286.84h35.23l270.42-269.3Zm-36.63-36.47L157.26,770.44h35.23l307-305.77Zm-36.62-36.48L84,770.44h35.24L462.9,428.19Zm-36.63-36.47L10.75,770.44H46l380.3-378.72ZM372,337.7-5.74,713.91V749L389.65,355.24Zm-36.62-36.47L-5.74,641v35.09L353,318.77Zm-36.63-36.48L-5.74,568V603.1L316.4,282.29Zm-36.63-36.47L-5.74,495.06v35.09L279.77,245.82ZM225.53,191.8-5.74,422.11V457.2L243.14,209.34ZM188.9,155.33-5.74,349.16v35.09L206.52,172.87Zm-36.63-36.48-158,157.36V311.3L169.89,136.4ZM115.65,82.38-5.74,203.26v35.09l139-138.43ZM79,45.9-5.74,130.31V165.4L96.64,63.45ZM42.39,9.43-5.74,57.36V92.45L60,27ZM5.77-27-5.74-15.59V19.5l29.12-29Z"/><polygon class="cls-12" points="855.93 752.39 860.57 774.78 810.9 774.78 810.75 774.05 798.82 716.48 785.8 653.71 785.8 653.7 773.87 596.17 773.87 596.16 772.48 589.43 760.86 533.38 760.86 533.37 758.11 520.09 748.92 475.84 740.39 434.72 735.9 413.05 735.9 413.04 723.96 355.51 723.96 355.5 719.15 332.29 710.95 292.73 701.2 245.69 701.2 245.68 686 172.38 685.31 169.06 679.13 139.24 810.89 -23.5 873.41 -23.5 731.43 151.88 753.77 259.66 770.64 340.94 786.9 419.4 790.63 437.42 793.02 448.91 793.02 448.92 806.03 511.71 806.03 511.72 807.77 520.09 817.96 569.25 818.27 570.74 830.97 632.02 842.91 689.59 845.64 702.76 855.93 752.39"/><polygon class="cls-13" points="949.99 774.78 892.13 774.78 885.27 764.16 864 731.2 845.64 702.76 840.77 695.21 819.47 662.22 796.26 626.26 796.26 626.25 774.97 593.28 772.48 589.43 751.75 557.32 730.45 524.35 727.7 520.09 717.81 504.76 740.39 434.72 770.64 340.94 792.47 273.17 859.24 66.01 859.26 65.99 886.7 -19.18 886.73 -19.23 888.1 -23.5 939.19 -23.5 812.46 369.65 812.46 369.67 795.4 422.62 790.63 437.42 771.17 497.79 773.21 500.94 785.58 520.09 796.44 536.9 796.44 536.91 817.72 569.89 818.27 570.74 840.93 605.86 862.23 638.84 871.15 652.66 885.46 674.84 906.74 707.79 940.5 760.08 940.5 760.09 949.99 774.78"/></g></g></g></g></svg>