<svg xmlns="http://www.w3.org/2000/svg" xmlns:xlink="http://www.w3.org/1999/xlink" viewBox="0 0 826.12 1264.18"><defs><style>.cls-1{isolation:isolate;}.cls-2{fill:url(#linear-gradient);}.cls-3,.cls-4{mix-blend-mode:multiply;}.cls-3{fill:url(#linear-gradient-2);}.cls-4{fill:url(#linear-gradient-3);}.cls-5{fill:url(#linear-gradient-4);}.cls-6{fill:url(#linear-gradient-5);}.cls-7{fill:url(#linear-gradient-6);}.cls-8{fill:url(#linear-gradient-7);}</style><linearGradient id="linear-gradient" x1="-5.61" y1="631.02" x2="831.81" y2="631.02" gradientUnits="userSpaceOnUse"><stop offset="0" stop-color="#414042"/><stop offset="1" stop-color="#231f20"/></linearGradient><linearGradient id="linear-gradient-2" x1="-2663.53" y1="1065.42" x2="-2906.59" y2="822.36" gradientTransform="translate(-703.2 -1812.73) rotate(-90)" gradientUnits="userSpaceOnUse"><stop offset="0" stop-color="#fff"/><stop offset="0.23" stop-color="#f8f8f8"/><stop offset="0.56" stop-color="#e6e6e6"/><stop offset="0.95" stop-color="#c8c7c7"/><stop offset="1" stop-color="#c4c3c3"/></linearGradient><linearGradient id="linear-gradient-3" x1="3.44" y1="-2175.17" x2="-207.11" y2="-2385.72" gradientTransform="translate(-1665.73 347.2) rotate(90)" xlink:href="#linear-gradient-2"/><linearGradient id="linear-gradient-4" x1="-4.88" y1="630.22" x2="264.43" y2="630.22" xlink:href="#linear-gradient"/><linearGradient id="linear-gradient-5" x1="48.74" y1="630.22" x2="370.6" y2="630.22" xlink:href="#linear-gradient"/><linearGradient id="linear-gradient-6" x1="-3250.86" y1="-1737.76" x2="-2981.54" y2="-1737.76" gradientTransform="translate(-2420.12 -1107.91) rotate(180)" xlink:href="#linear-gradient"/><linearGradient id="linear-gradient-7" x1="-3197.23" y1="-1737.76" x2="-2875.38" y2="-1737.76" gradientTransform="translate(-2420.12 -1107.91) rotate(180)" xlink:href="#linear-gradient"/></defs><title>Prancheta 10</title><g class="cls-1"><g id="Camada_4" data-name="Camada 4"><rect class="cls-2" x="-5.61" y="-5.19" width="837.42" height="1272.41"/><path class="cls-3" d="M666.63,1252.31l-11.79,13.41H625.21l26.61-30.24ZM621,1200.48l-57.41,65.24h29.63l42.59-48.41Zm-30.8-35L502,1265.72h29.63L605,1182.31Zm-30.8-35-119,135.24H470l104.19-118.41Zm-30.8-35-149.8,170.24h29.62l135-153.41Zm-30.8-35-180.6,205.24h29.62l165.79-188.41Zm-30.8-35-211.4,240.25h29.62l196.59-223.41Zm-30.8-35L194,1265.72h29.63L451,1007.31Zm-30.8-35-273,310.25h29.63L420.24,972.31Zm-30.8-35L70.82,1265.72h29.63l289-328.41Zm-30.8-35L9.22,1265.72H38.85L358.64,902.3Zm-30.8-35-317.67,361v33.67L327.84,867.3Zm-30.79-35-286.88,326v33.66L297,832.3Zm-30.8-35-256.08,291v33.67L266.24,797.3Zm-30.8-35-225.28,256v33.67L235.44,762.3Zm-30.8-35-194.48,221v33.67L204.64,727.3Zm-30.8-35-163.68,186v33.67L173.84,692.3Zm-30.8-35-132.88,151v33.66L143,657.3Zm-30.8-35-102.08,116v33.67L112.24,622.3Zm-30.8-35-71.28,81v33.67L81.44,587.3Zm-30.8-35-40.48,46v33.67l55.29-62.84ZM5,500.46l-9.68,11v33.67l24.49-27.84Z"/><path class="cls-4" d="M233.92,6.61,244.42-5h26.36L247.1,21.2Zm40.59,44.91L325.6-5H299.24L261.33,36.94Zm27.41,30.33L380.43-5H354.06L288.74,67.26Zm27.42,30.32L435.25-5H408.88L316.15,97.58Zm27.41,30.32L490.07-5H463.71L343.56,127.91Zm27.41,30.33L544.9-5H518.53L371,158.23Zm27.41,30.32L599.72-5H573.35l-175,193.56ZM439,233.47,654.54-5H628.17L425.8,218.88Zm27.41,30.32L709.36-5H683L453.21,249.21Zm27.41,30.32L764.19-5H737.82L480.62,279.53Zm27.41,30.33L819-5H792.64L508,309.85Zm27.42,30.32L831.35,42V12.82L535.44,340.18ZM576,385.09,831.35,102.64V73.47l-268.5,297Zm27.41,30.32,227.9-252.12V134.12L590.27,400.83Zm27.41,30.33,200.49-221.8V194.77L617.68,431.15Zm27.41,30.32L831.35,284.59V255.42L645.09,461.47Zm27.41,30.32L831.35,345.23V316.06L672.5,491.8Zm27.41,30.33L831.35,405.88V376.71L699.91,522.12ZM740.51,567l90.84-100.5V437.36l-104,115.09Zm27.41,30.33,63.43-70.18V498l-76.62,84.76Zm27.41,30.32,36-39.85V558.66L782.14,613.1ZM822.74,658l8.61-9.52V619.31l-21.79,24.11Z"/><polygon class="cls-5" points="240.2 1229.73 246.63 1265.36 177.78 1265.36 177.57 1264.2 161.03 1172.58 142.98 1072.7 142.98 1072.69 126.44 981.13 126.44 981.12 124.52 970.41 108.41 881.22 108.41 881.21 104.59 860.07 91.87 789.65 80.04 724.23 73.82 689.75 73.82 689.73 57.27 598.19 57.27 598.17 50.6 561.22 39.23 498.28 25.71 423.43 25.71 423.41 4.64 306.77 3.69 301.48 -4.88 254.03 177.76 -4.93 264.43 -4.93 67.62 274.15 98.59 445.66 121.96 574.99 144.5 699.84 149.68 728.52 152.99 746.81 152.99 746.83 171.03 846.74 171.03 846.75 173.44 860.07 187.56 938.31 187.99 940.67 205.6 1038.18 222.15 1129.79 225.94 1150.75 240.2 1229.73"/><polygon class="cls-6" points="370.6 1265.36 290.38 1265.36 280.88 1248.46 251.39 1196 225.94 1150.75 219.19 1138.74 189.66 1086.25 157.48 1029.02 157.48 1029.01 127.97 976.54 124.52 970.41 95.78 919.32 66.26 866.86 62.45 860.07 48.74 835.68 80.04 724.23 121.96 574.99 152.23 467.16 244.79 137.5 244.82 137.47 282.86 1.95 282.9 1.87 284.8 -4.93 355.62 -4.93 179.94 620.69 179.94 620.72 156.29 704.97 149.68 728.52 122.7 824.59 125.53 829.6 142.68 860.07 157.73 886.83 157.73 886.85 187.23 939.32 187.99 940.67 219.41 996.55 248.94 1049.04 261.3 1071.04 281.14 1106.32 310.64 1158.77 357.44 1241.97 357.44 1241.99 370.6 1265.36"/><polygon class="cls-7" points="585.66 30.88 579.22 -4.72 648.08 -4.72 648.29 -3.56 664.83 87.97 682.88 187.76 682.88 187.78 699.41 279.25 699.41 279.27 701.34 289.96 717.45 379.07 717.45 379.08 721.26 400.2 733.99 470.56 745.82 535.92 752.04 570.38 752.04 570.39 768.59 661.85 768.59 661.87 775.26 698.78 786.63 761.67 800.14 836.45 800.14 836.47 821.22 953.01 822.17 958.29 830.74 1005.69 648.1 1264.42 561.42 1264.42 758.24 985.59 727.27 814.24 703.89 685.03 681.35 560.29 676.18 531.63 672.87 513.36 672.87 513.34 654.83 413.52 654.83 413.51 652.42 400.2 638.29 322.04 637.86 319.67 620.26 222.25 603.71 130.73 599.92 109.79 585.66 30.88"/><polygon class="cls-8" points="455.26 -4.72 535.47 -4.72 544.98 12.16 574.47 64.57 599.92 109.79 606.67 121.78 636.2 174.23 668.38 231.4 668.38 231.42 697.89 283.83 701.34 289.96 730.08 341.01 759.6 393.43 763.41 400.2 777.12 424.57 745.82 535.92 703.89 685.03 673.63 792.76 581.07 1122.12 581.04 1122.15 543 1257.55 542.96 1257.63 541.06 1264.42 470.23 1264.42 645.92 639.37 645.92 639.34 669.57 555.16 676.18 531.63 703.16 435.66 700.33 430.64 683.18 400.2 668.13 373.47 668.13 373.45 638.63 321.02 637.86 319.67 606.45 263.85 576.92 211.4 564.56 189.43 544.72 154.18 515.22 101.78 468.42 18.65 468.42 18.63 455.26 -4.72"/></g></g></svg>